<?xml version="1.0" encoding="iso-8859-1"?>
<!-- Generator: Adobe Illustrator 19.0.0, SVG Export Plug-In . SVG Version: 6.00 Build 0)  -->
<svg version="1.1" id="Layer_1" xmlns="http://www.w3.org/2000/svg" xmlns:xlink="http://www.w3.org/1999/xlink" x="0px" y="0px"
	 viewBox="0 0 392.663 392.663" style="enable-background:new 0 0 392.663 392.663;" xml:space="preserve">
<path style="fill:#194F82;" d="M392.566,32.711C392.566,14.675,377.891,0,359.855,0H32.743C14.707,0,0.032,14.675,0.032,32.711
	v197.754c0,18.036,14.675,32.711,32.711,32.711h160.776c-2.521,8.857-4.008,18.23-4.008,27.927
	c0,55.919,45.511,101.56,101.56,101.56s101.56-45.511,101.56-101.56c0-13.899-2.844-27.216-7.952-39.305
	c5.042-5.818,7.952-13.317,7.952-21.269V32.711H392.566z M291.006,370.747c-43.96,0-79.644-35.749-79.644-79.644
	c0-43.96,35.749-79.644,79.644-79.644s79.644,35.749,79.644,79.644C370.78,334.998,335.03,370.747,291.006,370.747z M370.78,228.331
	c-18.618-23.661-47.386-38.853-79.644-38.853c-37.947,0-70.982,20.945-88.372,51.846H32.743c-6.012,0-10.925-4.848-10.925-10.925
	V32.711c0-6.012,4.848-10.925,10.925-10.925h327.111c6.012,0,10.925,4.848,10.925,10.925v195.685l0,0V228.331z"/>
<path style="fill:#FFC10D;" d="M202.634,241.325c17.455-30.901,50.554-51.846,88.372-51.846c32.323,0,61.091,15.192,79.644,38.853
	V32.711c0-6.012-4.848-10.925-10.925-10.925H32.743c-6.012,0-10.925,4.848-10.925,10.925v197.754
	c0,6.012,4.848,10.925,10.925,10.925h169.891V241.325z"/>
<path style="fill:#56ACE0;" d="M291.006,211.329c-43.96,0-79.644,35.749-79.644,79.644c0,43.96,35.749,79.644,79.644,79.644
	s79.644-35.749,79.644-79.644C370.78,247.143,335.03,211.329,291.006,211.329z"/>
<g>
	<path style="fill:#194F82;" d="M392.566,32.711C392.566,14.675,377.891,0,359.855,0H32.743C14.707,0,0.032,14.675,0.032,32.711
		v197.754c0,18.036,14.675,32.711,32.711,32.711h160.776c-2.521,8.857-4.008,18.23-4.008,27.927
		c0,55.919,45.511,101.56,101.56,101.56s101.56-45.511,101.56-101.56c0-13.899-2.844-27.216-7.952-39.305
		c5.042-5.818,7.952-13.317,7.952-21.269V32.711H392.566z M370.78,290.974c0,43.96-35.749,79.644-79.644,79.644
		s-79.644-35.749-79.644-79.644c0-43.96,35.749-79.644,79.644-79.644S370.78,247.143,370.78,290.974z M21.818,230.4V32.711
		c0-6.012,4.848-10.925,10.925-10.925h327.111c6.012,0,10.925,4.848,10.925,10.925v195.685
		c-18.618-23.661-47.386-38.853-79.644-38.853c-37.947,0-70.982,20.945-88.372,51.846H32.743
		C26.731,241.325,21.818,236.477,21.818,230.4z"/>
	<path style="fill:#194F82;" d="M75.087,191.483H56.21c-6.012,0-10.925,4.848-10.925,10.925s4.848,10.925,10.925,10.925h18.877
		c6.012,0,10.925-4.848,10.925-10.925C85.947,196.331,81.099,191.483,75.087,191.483z"/>
	<path style="fill:#194F82;" d="M140.444,143.321H56.21c-6.012,0-10.925,4.848-10.925,10.925c0,6.012,4.848,10.925,10.925,10.925
		h84.299c6.012,0,10.925-4.848,10.925-10.925C151.434,148.234,146.457,143.321,140.444,143.321z"/>
	<path style="fill:#194F82;" d="M138.117,191.483H119.24c-6.012,0-10.925,4.848-10.925,10.925s4.848,10.925,10.925,10.925h18.877
		c6.012,0,10.925-4.848,10.925-10.925C148.978,196.331,144.129,191.483,138.117,191.483z"/>
	<path style="fill:#194F82;" d="M201.147,191.483h-18.877c-6.012,0-10.925,4.848-10.925,10.925s4.848,10.925,10.925,10.925h18.877
		c6.012,0,10.925-4.848,10.925-10.925S207.224,191.483,201.147,191.483z"/>
	<path style="fill:#194F82;" d="M322.747,317.22h-22.174l27.345-27.345c4.267-4.267,4.267-11.119,0-15.451
		c-4.267-4.267-11.119-4.267-15.451,0l-10.537,10.537v-44.606c0-6.012-4.848-10.925-10.925-10.925
		c-6.012,0-10.925,4.848-10.925,10.925v44.671l-10.473-10.537c-4.267-4.267-11.119-4.267-15.451,0
		c-4.267,4.267-4.267,11.119,0,15.451l27.345,27.345h-22.174c-6.012,0-10.925,4.848-10.925,10.925s4.848,10.925,10.925,10.925
		h63.354c6.012,0,10.925-4.849,10.925-10.925C333.608,322.069,328.76,317.22,322.747,317.22z"/>
</g>
<rect x="67.071" y="67.62" style="fill:#56ACE0;" width="30.901" height="30.901"/>
<g>
	<path style="fill:#194F82;" d="M108.897,45.77H56.21c-6.012,0-10.925,4.848-10.925,10.925v52.752
		c0,6.012,4.848,10.925,10.925,10.925h52.752c6.012,0,10.925-4.848,10.925-10.925V56.76C119.887,50.683,114.909,45.77,108.897,45.77
		z M98.036,98.521H67.135V67.62h30.901V98.521z"/>
	<path style="fill:#194F82;" d="M311.887,45.77c-7.176,0-13.899,2.004-19.846,5.624c-5.883-3.556-12.671-5.624-20.04-5.624
		c-21.398,0-38.788,17.39-38.788,38.788s17.39,38.788,38.788,38.788c7.24,0,14.158-2.069,19.911-5.56
		c5.947,3.62,12.8,5.56,19.911,5.56c21.398,0,38.788-17.39,38.788-38.788C350.675,63.224,333.22,45.77,311.887,45.77z
		 M311.887,101.56c-1.616,0-3.168-0.323-4.719-0.776c2.327-4.978,3.62-10.408,3.62-16.226s-1.293-11.313-3.62-16.226
		c1.552-0.453,3.103-0.776,4.719-0.776c9.374,0,17.002,7.628,17.002,17.002C328.824,93.931,321.261,101.56,311.887,101.56z
		 M272,101.56c-9.374,0-17.002-7.628-17.002-17.002S262.626,67.556,272,67.556c9.374,0,17.002,7.628,17.002,17.002
		C288.937,93.931,281.374,101.56,272,101.56z"/>
</g>
<g>
	<path style="fill:#56ACE0;" d="M311.887,67.62c-1.616,0-3.168,0.323-4.719,0.776c2.327,4.978,3.62,10.408,3.62,16.226
		s-1.293,11.313-3.62,16.226c1.552,0.453,3.103,0.776,4.719,0.776c9.374,0,17.002-7.628,17.002-17.002
		C328.824,75.184,321.261,67.62,311.887,67.62z"/>
	<path style="fill:#56ACE0;" d="M272,67.62c-9.374,0-17.002,7.628-17.002,17.002s7.628,17.002,17.002,17.002
		c9.374,0,17.002-7.628,17.002-17.002C288.937,75.184,281.374,67.62,272,67.62z"/>
</g>
<g>
</g>
<g>
</g>
<g>
</g>
<g>
</g>
<g>
</g>
<g>
</g>
<g>
</g>
<g>
</g>
<g>
</g>
<g>
</g>
<g>
</g>
<g>
</g>
<g>
</g>
<g>
</g>
<g>
</g>
</svg>
