<svg height="512" viewBox="0 0 60 60" width="512" xmlns="http://www.w3.org/2000/svg"><g id="Page-1" fill="none" fill-rule="evenodd"><g id="002---Giving-CPR" fill-rule="nonzero" transform="translate(0 -1)"><g id="color" transform="translate(1 2)"><circle id="Oval" cx="6" cy="52" fill="#ffe0b2" r="6"/><path id="Shape" d="m6 46c-.50665881-.0001775-1.01108756.0670797-1.5.2 2.6313194.6969499 4.46377085 3.0779454 4.46377085 5.8s-1.83245145 5.1030501-4.46377085 5.8c.48891244.1329203.99334119.2001775 1.5.2 3.31370843-.0000001 5.9999998-2.6862916 5.9999998-6s-2.68629137-5.9999999-5.9999998-6z" fill="#dfc49c"/><path id="Shape" d="m40 7c0 3.8659932-3.1340068 7-7 7s-7-3.1340068-7-7c0-3.86599325 3.1340068-7 7-7s7 3.13400675 7 7z" fill="#ffe0b2"/><path id="Shape" d="m33 0c-.5047789.00048534-1.0079153.05750746-1.5.17 2.5033853.56064533 4.4995389 2.44576705 5.2023793 4.91300777.7028403 2.46724071-.0002439 5.12129153-1.8323793 6.91699223-.9336727.9190288-2.1093692 1.5536969-3.39 1.83.4987038.1133971 1.0085665.1704212 1.52.17 3.8659932 0 7-3.1340068 7-7 0-3.86599325-3.1340068-7-7-7z" fill="#dfc49c"/><path id="Shape" d="m52 44v6.54c-.6076793-.352507-1.2974804-.5387533-2-.54h-26c-1.6568542 0-3 1.3431458-3 3v2c0 1.6568542 1.3431458 3 3 3h-5.95c-1.1129415.0003311-2.0228551-.8873895-2.05-2v-7.91c0-2.2588446 1.8311554-4.09 4.09-4.09z" fill="#e91e63"/><path id="Shape" d="m24 50h-3c-1.6568542 0-3 1.3431458-3 3v2c0 1.6568542 1.3431458 3 3 3h3c-1.6568542 0-3-1.3431458-3-3v-2c0-1.6568542 1.3431458-3 3-3z" fill="#ad1457"/><path id="Shape" d="m49 44v6h1c.7025196.0012467 1.3923207.187493 2 .54v-6.54z" fill="#ad1457"/><path id="Shape" d="m58 46v10c0 1.1045695-.8954305 2-2 2h-6c2.209139 0 4-1.790861 4-4-.0014643-1.4275968-.7636638-2.746202-2-3.46v-6.54h4c1.1045695 0 2 .8954305 2 2z" fill="#e91e63"/><path id="Shape" d="m54 54c0 2.209139-1.790861 4-4 4h-26c-1.6568542 0-3-1.3431458-3-3v-2c0-1.6568542 1.3431458-3 3-3h26c2.209139 0 4 1.790861 4 4z" fill="#ffe0b2"/><path id="Shape" d="m52 50.54c-.6076793-.352507-1.2974804-.5387533-2-.54h-3c2.209139 0 4 1.790861 4 4s-1.790861 4-4 4h3c2.209139 0 4-1.790861 4-4-.0014643-1.4275968-.7636638-2.746202-2-3.46z" fill="#dfc49c"/><path id="Shape" d="m48.09 25.82-4.09 5.7-7.67 10.69c-.2730502.3886088-.6113912.7269498-1 1-1.7898637 1.2903998-4.286604.8876997-5.58-.9l-8.75-12.16-3.1-4.33c-2.7115943-3.7806971-1.8979123-9.0362823 1.83-11.82 1.8369194-1.2909145 4.0248701-1.9888254 6.27-2h2.07c2.7194481 2.654957 7.0605519 2.654957 9.78 0h2.15c2.2519612.0070902 4.4474883.705191 6.29 2 3.713033 2.7958031 4.5125079 8.0456881 1.8 11.82z" fill="#00bcd4"/><path id="Shape" d="m46.25 14c-1.8313238-1.2870335-4.0117039-1.9847551-6.25-2h-2.13c1.9393732.1759602 3.7966303.8663903 5.38 2 3.7387141 2.7849948 4.5571921 8.0517225 1.84 11.84l-4.09 5.68-7.67 10.69c-.2730502.3886088-.6113912.7269498-1 1-.257578.1828088-.5362552.3338988-.83.45.4736923.2081059.9828725.3235201 1.5.34.8404744-.001203 1.6592159-.267119 2.34-.76.3886088-.2730502.7269498-.6113912 1-1l7.66-10.72 4.09-5.7c2.703825-3.784607 1.8862934-9.036359-1.84-11.82z" fill="#00838f"/><path id="Shape" d="m33 44.0000315h-12v-13.8500315l8.74 12.19c.7551506 1.0469483 1.9691371 1.6651132 3.26 1.6600315z" fill="#00bcd4"/><path id="Shape" d="m44 31.52v12.48h-11c.8404744-.001203 1.6592159-.267119 2.34-.76.3886088-.2730502.7269498-.6113912 1-1z" fill="#00bcd4"/><path id="Shape" d="m41 35.7v8.3h3v-12.48z" fill="#00838f"/></g><g id="outline" fill="#000"><path id="Shape" d="m7 61c3.8659932 0 7-3.1340068 7-7s-3.1340068-7-7-7c-3.86599325 0-7 3.1340068-7 7s3.13400675 7 7 7zm0-12c2.76142375 0 5 2.2385763 5 5s-2.23857625 5-5 5-5-2.2385763-5-5 2.23857625-5 5-5z"/><path id="Shape" d="m57 45h-11v-11.16l3.9-5.44c3.0118113-4.2471492 2.0890374-10.1209599-2.08-13.24-1.9979822-1.4024577-4.3789329-2.1565418-6.82-2.16h-.1c1.9501219-3.36179762 1.2019859-7.63881333-1.7735184-10.13901993-2.9755042-2.5002066-7.317459-2.5002066-10.2929632 0-2.9755043 2.5002066-3.7236403 6.77722231-1.7735184 10.13901993-2.4661106.0014241-4.8718995.7626171-6.89 2.18-4.135049 3.1389206-5.0215048 8.9983935-2 13.22l2.83 4.07v12.53c-2.7697625.0543002-4.9896683 2.3097245-5 5.08v7.92c.032599 1.6626321 1.3870562 2.9948851 3.05 3h37.95c1.6568542 0 3-1.3431458 3-3v-10c0-1.6568542-1.3431458-3-3-3zm-13 0h-6s.07 0 .09-.08l6-8.29zm-10-42c2.4381731.00192811 4.6327314 1.47910155 5.5522286 3.73724608.9194971 2.25814454.3810665 4.84816772-1.3622286 6.55275392-1.9361334 1.8931426-4.900383 2.2548187-7.2349134.8827512-2.3345304-1.3720674-3.4607144-4.1378033-2.7487037-6.75039625.7120108-2.61259296 3.0857403-4.42449634 5.7936171-4.42235495zm-12.7 13.8c1.672045-1.1671068 3.6609195-1.7951724 5.7-1.8h1.69c3.0184479 2.6473151 7.5315521 2.6473151 10.55 0h1.76c2.0348057-.0073829 4.0221627.614321 5.69 1.78 3.2816015 2.4727566 4.0036052 7.1059827 1.63 10.46l-9.58 13.29c-.1614864-.5284324-.4117255-1.0255289-.74-1.47l-2.8-3.87 7.67-10.6c.2107867-.2893851.2511765-.6692414.105955-.9964806s-.4539918-.5521459-.81-.59c-.3560082-.037854-.7051683.1170955-.915955.4064806l-7.25 10.07-7.29-10.07c-.2107867-.2893851-.5599468-.4443347-.915955-.4064806s-.6647785.2627608-.81.59-.1048317.7070955.105955.9964806l8 11.12 3.27 4.53c.4648641.6438824.6554583 1.4458167.53 2.23-.1138649.8012344-.546612 1.5224795-1.2 2-1.3534913.9224987-3.1916671.6285661-4.19-.67l-11.79-16.56c-2.3746322-3.338755-1.6708936-7.9595291 1.59-10.44zm8.63 28.13.07.07h-7v-9.74zm-11.93 13.07v-7.91c.0054889-1.7042811 1.3857189-3.0845111 3.09-3.09h30.91v4.1c-.3295585-.0639488-.6643043-.0974234-1-.1h-26c-2.209139 0-4 1.790861-4 4v2c.0029552.7049599.1964484 1.3960071.56 2h-2.51c-.2737686.0137058-.5411614-.0855689-.739656-.2746112-.1984945-.1890424-.3106869-.4512775-.310344-.7253888zm7 1c-1.1045695 0-2-.8954305-2-2v-2c0-1.1045695.8954305-2 2-2h26c1.6568542 0 3 1.3431458 3 3s-1.3431458 3-3 3zm33-1c0 .5522847-.4477153 1-1 1h-2c.8170777-1.0530181 1.1719693-2.3924808.9834773-3.7119253-.1884921-1.3194446-.9042376-2.5059591-1.9834773-3.2880747v-5h3c.5522847 0 1 .4477153 1 1z"/></g></g></g></svg>