<?xml version="1.0" encoding="iso-8859-1"?>
<!-- Generator: Adobe Illustrator 19.0.0, SVG Export Plug-In . SVG Version: 6.00 Build 0)  -->
<svg version="1.1" id="Capa_1" xmlns="http://www.w3.org/2000/svg" xmlns:xlink="http://www.w3.org/1999/xlink" x="0px" y="0px"
	 viewBox="0 0 512.002 512.002" style="enable-background:new 0 0 512.002 512.002;" xml:space="preserve">
<circle style="fill:#BBEF89;" cx="256.001" cy="264.688" r="247.314"/>
<path style="fill:#DAECF7;" d="M270.674,48.366c-4.797,0-8.685-3.888-8.685-8.685V23.355c0-3.299-2.685-5.984-5.984-5.984
	c-3.299,0-5.984,2.685-5.984,5.984V39.68c0,4.797-3.889,8.685-8.685,8.685s-8.685-3.888-8.685-8.685V23.355
	C232.651,10.477,243.128,0,256.005,0c12.877,0,23.354,10.477,23.354,23.355V39.68C279.359,44.478,275.471,48.366,270.674,48.366z"/>
<path style="fill:#5F6AB9;" d="M428.412,48.953H83.792c-8.735,0-15.817,7.082-15.817,15.816v360.555
	C113.335,478.368,180.738,512,256.004,512s142.67-33.632,188.029-86.676V64.575C444.034,55.947,437.041,48.953,428.412,48.953z"/>
<path style="fill:#524FA1;" d="M150.958,63.768c0-6.8,4.3-12.581,10.323-14.816H83.792c-8.735,0-15.817,7.082-15.817,15.816v360.555
	c22.723,26.572,50.978,48.27,82.982,63.312V63.768H150.958z"/>
<path style="fill:#DAECF7;" d="M383.248,102.602H128.956c-8.735,0-15.816,7.081-15.816,15.816c0,16.468,0,301.379,0,318.752
	c0,10.234,8.296,18.529,18.529,18.529h0.002h267.2V118.224C398.871,109.596,391.876,102.602,383.248,102.602z"/>
<path style="fill:#B2D9ED;" d="M150.958,102.602h-22.001c-8.735,0-15.816,7.082-15.816,15.817c0,16.468,0,301.379,0,318.751
	c0,10.234,8.296,18.529,18.529,18.529h0.002h19.287V102.602H150.958z"/>
<path style="fill:#FDCF49;" d="M256.005,131.361c-13.018,0-24.234-8.057-28.666-19.687H186.03
	c-12.877,0-23.354-10.477-23.354-23.355s10.477-23.355,23.354-23.355h139.951c12.877,0,23.354,10.477,23.354,23.355
	s-10.477,23.355-23.354,23.355h-41.309C280.24,123.305,269.023,131.361,256.005,131.361z M186.03,82.335
	c-3.299,0-5.984,2.685-5.984,5.984s2.685,5.984,5.984,5.984h48.096c4.447,0,8.175,3.359,8.638,7.782
	c0.709,6.787,6.402,11.905,13.24,11.905c6.839,0,12.531-5.118,13.24-11.905c0.463-4.423,4.192-7.782,8.638-7.782h48.096
	c3.299,0,5.984-2.685,5.984-5.984c0-3.299-2.685-5.984-5.984-5.984H186.03z"/>
<path style="fill:#B2D9ED;" d="M305.517,82.529h-99.023c-3.858,0-6.985-3.127-6.985-6.985V43.191c0-3.858,3.127-6.985,6.985-6.985
	h99.023c3.858,0,6.985,3.127,6.985,6.985v32.353C312.501,79.401,309.374,82.529,305.517,82.529z"/>
<path style="fill:#92D1EA;" d="M256.005,75.544V43.191c0-3.858,3.127-6.985,6.985-6.985h-56.496c-3.858,0-6.985,3.127-6.985,6.985
	v32.353c0,3.857,3.127,6.985,6.985,6.985h56.496C259.132,82.529,256.005,79.401,256.005,75.544z"/>
<path style="fill:#14C0EB;" d="M226.862,221.958h-51.461c-8.974,0-16.25,7.276-16.25,16.25v33.554c0,2.162,1.752,3.915,3.915,3.915
	H239.5c1.997,0,3.615-1.618,3.615-3.614V238.21C243.114,229.234,235.838,221.958,226.862,221.958z"/>
<path style="fill:#00ADDC;" d="M191.28,238.209c0-8.975,7.275-16.251,16.25-16.251H175.4c-9.012,0-16.25,7.345-16.25,16.251v33.554
	c0.001,2.162,1.753,3.914,3.915,3.914h28.215L191.28,238.209L191.28,238.209z"/>
<circle style="fill:#F4C3B8;" cx="201.127" cy="182.427" r="27.177"/>
<path style="fill:#EAB5AC;" d="M201.133,155.246c-20.748-0.022-34.047,22.569-23.54,40.766
	c10.505,18.196,36.719,17.978,47.075-0.003C203.744,195.989,190.694,173.37,201.133,155.246z"/>
<g>
	<path style="fill:#FFFFFF;" d="M345.516,202.587h-69.855c-4.797,0-8.685-3.888-8.685-8.685s3.889-8.685,8.685-8.685h69.855
		c4.797,0,8.685,3.888,8.685,8.685S350.312,202.587,345.516,202.587z"/>
	<path style="fill:#FFFFFF;" d="M345.516,238.54h-69.855c-4.797,0-8.685-3.888-8.685-8.685s3.889-8.685,8.685-8.685h69.855
		c4.797,0,8.685,3.888,8.685,8.685C354.201,234.652,350.312,238.54,345.516,238.54z"/>
	<path style="fill:#FFFFFF;" d="M313.484,166.636h-37.823c-4.797,0-8.685-3.888-8.685-8.685s3.889-8.685,8.685-8.685h37.823
		c4.797,0,8.685,3.888,8.685,8.685C322.169,162.747,318.281,166.636,313.484,166.636z"/>
	<path style="fill:#FFFFFF;" d="M345.516,274.493h-69.855c-4.797,0-8.685-3.888-8.685-8.685c0-4.797,3.889-8.685,8.685-8.685h69.855
		c4.797,0,8.685,3.888,8.685,8.685C354.201,270.605,350.312,274.493,345.516,274.493z"/>
	<path style="fill:#FFFFFF;" d="M345.516,310.445H165.667c-4.797,0-8.685-3.888-8.685-8.685s3.889-8.685,8.685-8.685h179.849
		c4.797,0,8.685,3.888,8.685,8.685C354.201,306.556,350.312,310.445,345.516,310.445z"/>
	<path style="fill:#FFFFFF;" d="M345.516,346.396H165.667c-4.797,0-8.685-3.888-8.685-8.685s3.889-8.685,8.685-8.685h179.849
		c4.797,0,8.685,3.888,8.685,8.685C354.201,342.508,350.312,346.396,345.516,346.396z"/>
	<path style="fill:#FFFFFF;" d="M345.516,382.35H165.667c-4.797,0-8.685-3.888-8.685-8.685c0-4.797,3.889-8.685,8.685-8.685h179.849
		c4.797,0,8.685,3.888,8.685,8.685C354.201,378.462,350.312,382.35,345.516,382.35z"/>
</g>
<rect x="371.971" y="142.847" style="fill:#DAECF7;" width="53.797" height="34.52"/>
<g>
	<rect x="371.971" y="160.581" style="fill:#B2D9ED;" width="53.797" height="16.785"/>
	<rect x="371.971" y="142.847" style="fill:#B2D9ED;" width="18.205" height="34.52"/>
</g>
<rect x="371.971" y="160.581" style="fill:#92D1EA;" width="18.205" height="16.785"/>
<path style="fill:#FB6467;" d="M398.871,102.602L398.871,102.602c-14.856,0-26.899,12.043-26.899,26.899v14.636h53.797v-14.636
	C425.769,114.645,413.726,102.602,398.871,102.602z"/>
<path style="fill:#EF525A;" d="M390.213,129.257c0-10.94,5.664-20.549,14.215-26.078c-1.793-0.377-3.651-0.578-5.556-0.578l0,0
	c-14.856,0-26.898,12.043-26.898,26.899v14.636h18.241L390.213,129.257z"/>
<path style="fill:#FDB913;" d="M371.972,176.106V347.88c0-4.952,4.014-8.966,8.966-8.966s8.966,4.014,8.966,8.966V176.106H371.972z"
	/>
<path style="fill:#FDCF49;" d="M389.905,176.106V347.88c0-4.952,4.014-8.966,8.966-8.966s8.966,4.014,8.966,8.966V176.106H389.905z"
	/>
<path style="fill:#FDE57F;" d="M407.836,176.106V347.88c0-4.952,4.014-8.966,8.966-8.966s8.966,4.014,8.966,8.966V176.106H407.836z"
	/>
<path style="fill:#F4C3B8;" d="M398.871,378.619c5.041,0,10.032-0.216,14.974-0.6l11.925-30.138c0-4.951-4.014-8.966-8.966-8.966
	c-3.63,0-6.748,2.161-8.157,5.262c-0.135,0.297-0.421,0.497-0.747,0.497h-0.037c-0.36,0-0.696-0.201-0.846-0.528
	c-1.416-3.086-4.525-5.232-8.143-5.232c-3.63,0-6.748,2.16-8.157,5.262c-0.14,0.309-0.46,0.498-0.799,0.498
	c-0.351,0-0.68-0.196-0.826-0.515c-1.413-3.093-4.526-5.245-8.149-5.245c-4.952,0-8.966,4.014-8.966,8.966l11.924,30.138
	C388.839,378.403,393.829,378.619,398.871,378.619z"/>
<path style="fill:#EAB5AC;" d="M371.972,347.881l11.925,30.138c4.632,0.36,9.307,0.565,14.027,0.59l-8.413-34.034l0,0
	c-0.086-0.042-0.165-0.094-0.234-0.161c-0.005-0.005-0.011-0.008-0.016-0.013c-0.069-0.07-0.13-0.148-0.172-0.241
	c-1.413-3.093-4.526-5.245-8.149-5.245C375.986,338.914,371.972,342.928,371.972,347.881z"/>
<path style="fill:#656582;" d="M398.871,377.098c-5.308,0-10.543-0.312-15.694-0.898l10.994,27.785c1.685,4.26,7.714,4.26,9.399,0
	l10.994-27.785C409.413,376.786,404.178,377.098,398.871,377.098z"/>
<path style="fill:#585877;" d="M401,406.721c2.311-1.049,2.71-3.284,2.955-3.709l-6.411-25.933
	c-4.853-0.047-9.646-0.341-14.368-0.879l10.459,26.433c0.447,0.83,0.581,2.345,2.227,3.558
	C397.349,407.287,399.349,407.471,401,406.721z"/>
<path style="fill:#B2D9ED;" d="M398.871,455.699L398.871,455.699H131.669c10.234,0,18.529-8.295,18.529-18.529V414.42
	c0-2.785,2.258-5.043,5.043-5.043h256.393c3.184,0,5.766,2.581,5.766,5.766v22.029C417.4,447.404,409.103,455.699,398.871,455.699z"
	/>
<path style="fill:#92D1EA;" d="M201.153,432.539c0-10.381,6.274-19.293,15.235-23.161H155.24c-2.786,0-5.043,2.258-5.043,5.043
	v22.75c0,10.234-8.296,18.529-18.529,18.529h84.72C207.426,451.831,201.153,442.919,201.153,432.539z"/>
<g>
</g>
<g>
</g>
<g>
</g>
<g>
</g>
<g>
</g>
<g>
</g>
<g>
</g>
<g>
</g>
<g>
</g>
<g>
</g>
<g>
</g>
<g>
</g>
<g>
</g>
<g>
</g>
<g>
</g>
</svg>
