<?xml version="1.0" encoding="iso-8859-1"?>
<!-- Generator: Adobe Illustrator 19.0.0, SVG Export Plug-In . SVG Version: 6.00 Build 0)  -->
<svg version="1.1" id="Capa_1" xmlns="http://www.w3.org/2000/svg" xmlns:xlink="http://www.w3.org/1999/xlink" x="0px" y="0px"
	 viewBox="0 0 512 512" style="enable-background:new 0 0 512 512;" xml:space="preserve">
<path style="fill:#B3B3B3;" d="M67.707,114.161c-8.734,0-15.815,7.08-15.815,15.815v26.358h31.629v-26.358
	C83.521,121.241,76.441,114.161,67.707,114.161z"/>
<polygon style="fill:#A8E5FF;" points="113.174,262.424 83.521,262.424 53.869,210.532 83.521,143.814 113.174,143.814 "/>
<polygon style="fill:#DBF4FF;" points="83.521,173.466 51.892,143.814 22.239,143.814 22.239,262.424 83.521,262.424 "/>
<rect x="51.892" y="143.815" style="fill:#808080;" width="31.629" height="29.653"/>
<path style="fill:#1990C2;" d="M187.305,232.771l14.826,88.958c24.565,0,44.479-19.914,44.479-44.479L187.305,232.771z"/>
<path style="fill:#2DADE3;" d="M157.653,277.25c0,24.565,19.914,44.479,44.479,44.479v-88.958L157.653,277.25z"/>
<polygon style="fill:#DBF4FF;" points="231.784,158.64 202.131,158.628 172.479,217.939 202.131,277.238 231.784,277.25 
	246.61,217.945 "/>
<polygon style="fill:#FFFFFF;" points="202.131,158.628 172.479,158.64 157.653,217.945 172.479,277.25 202.131,277.238 "/>
<path style="fill:#808080;" d="M162.601,158.64c-10.918,0-19.768,8.85-19.768,19.768l-0.006,158.147h29.653V158.64H162.601z"/>
<path style="fill:#696969;" d="M241.668,158.64h-9.884v177.915h29.652V178.408C261.436,167.49,252.586,158.64,241.668,158.64z"/>
<path style="fill:#A45E43;" d="M235.99,55.681c0.01-0.01-33.858-0.005-33.858-0.005v73.311c24.562,0,44.479-19.917,44.479-44.479
	C246.61,73.517,242.612,63.441,235.99,55.681z"/>
<path style="fill:#C27749;" d="M215.86,67.715l-47.587-12.034c-6.622,7.759-10.621,17.836-10.621,28.827
	c0,24.562,19.917,44.479,44.479,44.479c8.184,0,14.826-19.917,14.826-44.479C216.958,78.568,216.572,72.895,215.86,67.715z"/>
<path style="fill:#60312C;" d="M202.131,40.03l13.729,27.686c7.364-2.204,14.307-6.222,20.129-12.034
	C227.835,46.104,215.692,40.03,202.131,40.03z"/>
<path style="fill:#85453D;" d="M202.131,40.03c-13.561,0-25.704,6.074-33.858,15.652c12.889,12.889,31.278,16.907,47.587,12.034
	C213.656,51.476,208.339,40.03,202.131,40.03z"/>
<rect x="399.815" y="227.83" style="fill:#EBEBEB;" width="59.305" height="84.015"/>
<polygon style="fill:#084F6D;" points="473.954,247.597 429.472,188.292 473.954,128.987 503.608,128.987 503.608,247.597 "/>
<rect x="355.356" y="128.988" style="fill:#116F97;" width="118.6" height="118.61"/>
<polygon style="fill:#A45E43;" points="392.896,294.064 460.108,338.543 489.761,338.543 489.761,294.064 "/>
<rect x="305.915" y="294.064" style="fill:#C27749;" width="154.193" height="44.479"/>
<polygon style="fill:#E18F4E;" points="474.934,277.261 460.108,292.087 474.934,306.913 504.587,306.913 504.587,277.261 "/>
<rect x="291.089" y="277.261" style="fill:#FFA754;" width="183.846" height="29.653"/>
<path style="fill:#49C9FF;" d="M469.581,182.461l-6.298-8.995l-48.638-14.826l14.826,59.305h22.244
	c12.282,0,22.239-9.957,22.239-22.239C473.956,190.743,472.329,186.16,469.581,182.461z"/>
<path style="fill:#7DD9FF;" d="M395.664,173.466l-6.639,9.483c-2.534,3.612-4.027,8.008-4.027,12.756
	c0,12.282,9.957,22.239,22.239,22.239h22.234v-59.305L395.664,173.466z"/>
<polygon style="fill:#DBF4FF;" points="463.283,173.466 444.298,146.353 444.298,114.161 414.646,114.161 414.646,146.353 
	395.664,173.466 "/>
<path d="M263.781,479.762l-24.584-8.194v-127.6h22.239c4.095,0,7.413-3.318,7.413-7.413V185.821h42.018
	c12.262,0,22.239-9.977,22.239-22.239c0-12.262-9.977-22.239-22.239-22.239h-7.413V89.451c0-4.095-3.318-7.413-7.413-7.413
	c-4.095,0-7.413,3.318-7.413,7.413v81.544h-20.814c-3.236-11.394-13.728-19.768-26.146-19.768h-79.073
	c-12.417,0-22.91,8.374-26.146,19.768h-15.862v-27.181c0-4.095-3.318-7.413-7.413-7.413H90.934v-6.425
	c0-12.808-10.42-23.228-23.228-23.228s-23.228,10.42-23.228,23.228v6.425H22.239c-4.095,0-7.413,3.318-7.413,7.413v51.892H7.413
	c-4.095,0-7.413,3.318-7.413,7.413s3.318,7.413,7.413,7.413h7.413v51.892c0,4.095,3.318,7.413,7.413,7.413h90.934
	c4.095,0,7.413-3.318,7.413-7.413v-76.602h14.826v91.429c0,4.095,3.318,7.413,7.413,7.413s7.413-3.318,7.413-7.413v-98.842
	c0-6.813,5.542-12.355,12.355-12.355h2.471v144.032c-0.002,0.04,0.001,0.082,0,0.123v18.933h-14.826v-22.239
	c0-4.095-3.318-7.413-7.413-7.413s-7.413,3.318-7.413,7.413v29.652c0,4.095,3.318,7.413,7.413,7.413h22.239v127.6l-24.584,8.194
	c-3.884,1.295-5.983,5.494-4.688,9.377c1.036,3.107,3.928,5.071,7.032,5.071c0.777,0,1.568-0.124,2.346-0.383l29.652-9.884
	c3.027-1.009,5.069-3.842,5.069-7.033V324.13c6.891,3.27,14.47,5.012,22.239,5.012c7.769,0,15.348-1.742,22.239-5.012V476.91
	c0,3.192,2.041,6.024,5.069,7.033l29.653,9.884c0.778,0.259,1.569,0.383,2.345,0.383c3.105,0,5.996-1.964,7.032-5.071
	C269.764,485.254,267.665,481.056,263.781,479.762z M59.305,129.976c0-4.633,3.769-8.402,8.402-8.402
	c4.633,0,8.402,3.769,8.402,8.402v6.425H59.305V129.976z M59.305,151.227h16.803v14.826H59.305V151.227z M105.761,255.011H29.653
	v-44.479h7.413c4.095,0,7.413-3.318,7.413-7.413s-3.318-7.413-7.413-7.413h-7.413v-44.479h14.826v22.239
	c0,4.095,3.318,7.413,7.413,7.413h31.629c4.095,0,7.413-3.318,7.413-7.413v-22.239h14.826V255.011z M303.454,156.169h7.413
	c4.088,0,7.413,3.325,7.413,7.413c0,4.088-3.325,7.413-7.413,7.413h-7.413V156.169z M254.023,178.408v150.734h-14.826V166.053h2.471
	C248.481,166.053,254.023,171.595,254.023,178.408z M194.718,166.053v66.706c0,4.095,3.318,7.413,7.413,7.413
	s7.413-3.318,7.413-7.413v-66.706h14.826v103.784h-14.826v-7.425c0-4.095-3.318-7.413-7.413-7.413s-7.413,3.318-7.413,7.413v7.425
	h-14.826V166.053H194.718z M202.131,314.316c-8.065,0-15.847-2.616-22.239-7.416v-22.236h44.479V306.9
	C217.979,311.699,210.196,314.316,202.131,314.316z"/>
<path d="M202.131,136.401c28.613,0,51.892-23.279,51.892-51.892s-23.279-51.892-51.892-51.892s-51.892,23.279-51.892,51.892
	S173.519,136.401,202.131,136.401z M224.887,55.282c-13.679,9.31-31.833,9.31-45.512,0c6.286-4.906,14.183-7.839,22.755-7.839
	C210.703,47.443,218.601,50.377,224.887,55.282z M169.691,66.603c9.637,6.99,21.037,10.491,32.44,10.491s22.803-3.501,32.44-10.491
	c2.943,5.312,4.626,11.415,4.626,17.906c0,20.438-16.627,37.066-37.066,37.066s-37.066-16.627-37.066-37.066
	C165.066,78.018,166.748,71.914,169.691,66.603z"/>
<path d="M504.587,269.848h-38.049V255.01h37.061c4.094,0,7.413-3.318,7.413-7.412l0.01-118.609c0-1.966-0.781-3.852-2.171-5.243
	c-1.391-1.391-3.276-2.172-5.243-2.172h-29.657c-4.095,0-7.413,3.318-7.413,7.413s3.318,7.413,7.413,7.413h22.243l-0.008,103.783
	H362.76l0.008-103.782h22.226c4.095,0,7.413-3.318,7.413-7.413c0-4.095-3.318-7.413-7.413-7.413h-29.638
	c-4.094,0-7.413,3.318-7.413,7.412l-0.01,118.609c0,1.966,0.781,3.852,2.171,5.243c1.391,1.391,3.276,2.172,5.243,2.172h37.061
	v14.838H291.089c-4.095,0-7.413,3.318-7.413,7.413v29.653c0,4.095,3.318,7.413,7.413,7.413h7.413v172.467
	c0,4.095,3.318,7.413,7.413,7.413c4.095,0,7.413-3.318,7.413-7.413V345.956h109.714v51.892c0,12.262,9.977,22.239,22.239,22.239
	c12.262,0,22.239-9.977,22.239-22.239v-51.892h14.826v140.838c0,4.095,3.318,7.413,7.413,7.413c4.095,0,7.413-3.318,7.413-7.413
	V314.326h7.413c4.095,0,7.413-3.318,7.413-7.413v-29.652C512,273.167,508.682,269.848,504.587,269.848z M407.233,255.011h44.479
	v14.838h-44.479V255.011z M452.695,397.848c0,4.088-3.325,7.413-7.413,7.413c-4.088,0-7.413-3.325-7.413-7.413v-51.892h14.826
	V397.848z M482.347,331.13H313.328v-16.803h169.019V331.13z M497.174,299.5H298.502v-14.826h198.672V299.5z"/>
<path d="M429.472,91.923c12.262,0,22.239-9.977,22.239-22.239s-9.977-22.239-22.239-22.239c-12.262,0-22.239,9.977-22.239,22.239
	S417.21,91.923,429.472,91.923z M429.472,62.27c4.088,0,7.413,3.325,7.413,7.413c0,4.088-3.325,7.413-7.413,7.413
	c-4.088,0-7.413-3.325-7.413-7.413C422.059,65.595,425.384,62.27,429.472,62.27z"/>
<circle cx="429.467" cy="25.204" r="7.413"/>
<path d="M377.585,195.706c0,16.35,13.302,29.652,29.652,29.652h44.479c16.35,0,29.652-13.302,29.652-29.652
	c0-6.378-1.996-12.454-5.77-17.575l-23.887-34.114v-29.855c0-4.095-3.318-7.413-7.413-7.413h-29.652
	c-4.095,0-7.413,3.318-7.413,7.413v29.855l-24.276,34.675C379.443,183.699,377.585,189.582,377.585,195.706z M395.098,187.201
	l25.621-36.596c0.873-1.246,1.34-2.731,1.34-4.252v-24.779h14.826v24.779c0,1.521,0.469,3.006,1.34,4.252l25.283,36.108
	c0.04,0.057,0.08,0.113,0.122,0.168c1.906,2.566,2.912,5.617,2.912,8.825c0,8.175-6.651,14.826-14.826,14.826h-44.479
	c-8.175,0-14.826-6.651-14.826-14.826C392.411,192.646,393.339,189.708,395.098,187.201z"/>
<g>
</g>
<g>
</g>
<g>
</g>
<g>
</g>
<g>
</g>
<g>
</g>
<g>
</g>
<g>
</g>
<g>
</g>
<g>
</g>
<g>
</g>
<g>
</g>
<g>
</g>
<g>
</g>
<g>
</g>
</svg>
