<svg height="512" viewBox="0 0 60 60" width="512" xmlns="http://www.w3.org/2000/svg"><g id="Page-1" fill="none" fill-rule="evenodd"><g id="021---Eye-Test" fill-rule="nonzero"><g id="Icons" transform="translate(1 1)"><path id="Shape" d="m40 11v45c0 1.1045695-.8954305 2-2 2h-36c-1.1045695 0-2-.8954305-2-2v-54c0-1.1045695.8954305-2 2-2h27z" fill="#ffdc00"/><path id="Shape" d="m29 0h-3l11 11v45c0 1.1045695-.8954305 2-2 2h3c1.1045695 0 2-.8954305 2-2v-45z" fill="#fec108"/><path id="Shape" d="m40 11h-9c-1.1045695 0-2-.8954305-2-2v-9z" fill="#ffeb3a"/><path id="Shape" d="m29 0v3l8 8h3z" fill="#fdd834"/><path id="Shape" d="m34 21.64c.0699887.2246756.0699887.4653244 0 .69-1.28 4.35-7 7.67-14 7.67s-12.67-3.32-13.95-7.67c-.06998871-.2246756-.06998871-.4653244 0-.69 1.28-4.35 7-7.64 14-7.64s12.62 3.29 13.95 7.64z" fill="#f5f5f5"/><path id="Shape" d="m34 21.64c-1.28-4.35-7-7.64-14-7.64-.5133333 0-1.0133333.02-1.5.06 6.24.43 11.27 3.55 12.45 7.58.0699887.2246756.0699887.4653244 0 .69-1.18 4-6.21 7.17-12.45 7.61.4866667.04.9866667.06 1.5.06 6.93 0 12.67-3.32 14-7.67.0699887-.2246756.0699887-.4653244 0-.69z" fill="#cfd8dc"/><circle id="Oval" cx="20" cy="22" fill="#02a9f4" r="8"/><path id="Shape" d="m20 14c-.5037755-.0006399-1.006327.0496153-1.5.15 3.7521084.7369975 6.4580856 4.0261952 6.4580856 7.85s-2.7059772 7.1130025-6.4580856 7.85c.493673.1003847.9962245.1506399 1.5.15 4.418278 0 8-3.581722 8-8s-3.581722-8-8-8z" fill="#0377bc"/><circle id="Oval" cx="20" cy="22" fill="#3f51b5" r="3"/><path id="Rectangle-path" d="m45 11h13v36h-13z" fill="#02a9f4"/><path id="Rectangle-path" d="m55 11h3v36h-3z" fill="#0377bc"/><path id="Shape" d="m58 47v8c0 1.6568542-1.3431458 3-3 3h-7c-1.6568542 0-3-1.3431458-3-3v-8z" fill="#ef314c"/><path id="Shape" d="m55 47v8c0 1.6568542-1.3431458 3-3 3h3c1.6568542 0 3-1.3431458 3-3v-8z" fill="#bb193b"/><path id="Shape" d="m55.73 6h-8.46l2.11-4.63c.3786649-.8304266 1.2073142-1.3633046 2.12-1.3633046s1.7413351.532878 2.12 1.3633046z" fill="#607d8b"/><path id="Shape" d="m53.62 1.37c-.3746751-.83476989-1.2050025-1.3713494-2.12-1.37-.5542023.00287443-1.0880285.20928725-1.5.58.2625725.2142165.4743303.48403698.62.79l2.11 4.63h3z" fill="#37474f"/><path id="Shape" d="m58 11h-13l2.27-5h8.46z" fill="#ffeb3a"/><path id="Shape" d="m55.73 6h-3l2.27 5h3z" fill="#fdd834"/><path id="Shape" d="m51 55h-1c-1.1045695 0-2-.8954305-2-2v-1c0-.5522847.4477153-1 1-1s1 .4477153 1 1v1h1c.5522847 0 1 .4477153 1 1s-.4477153 1-1 1z" fill="#f5f5f5"/></g><g id="Icons_copy" fill="#000"><path id="Shape" d="m42 57v-45c.0015368-.265803-.1028135-.5212812-.29-.71l-11-11c-.1887188-.18718651-.444197-.29153676-.71-.29h-27c-1.65685425 0-3 1.34314575-3 3v54c0 1.6568542 1.34314575 3 3 3h36c1.6568542 0 3-1.3431458 3-3zm-11-53.59 7.59 7.59h-6.59c-.5522847 0-1-.4477153-1-1zm-29 53.59v-54c0-.55228475.44771525-1 1-1h26v8c0 1.6568542 1.3431458 3 3 3h8v44c0 .5522847-.4477153 1-1 1h-36c-.55228475 0-1-.4477153-1-1z"/><path id="Shape" d="m6.09 22.36c-.12.4114286-.12.8485714 0 1.26 1.43 4.85 7.7 8.38 14.91 8.38s13.48-3.53 14.91-8.38c.12-.4114286.12-.8485714 0-1.26-1.42-4.85-7.69-8.36-14.91-8.36s-13.49 3.51-14.91 8.36zm21.91.64c0 3.8659932-3.1340068 7-7 7s-7-3.1340068-7-7 3.1340068-7 7-7 7 3.1340068 7 7zm-20 .05c-.00983779-.042775-.00983779-.087225 0-.13.71-2.41 3-4.42 6.05-5.65-2.7408304 3.3246044-2.7408304 8.1253956 0 11.45-3.05-1.23-5.33-3.25-6.05-5.67zm26-.13c.0098378.042775.0098378.087225 0 .13-.71 2.42-3 4.44-6 5.67 2.7408304-3.3246044 2.7408304-8.1253956 0-11.45 3 1.23 5.28 3.23 6 5.65z"/><path id="Shape" d="m21 27c2.209139 0 4-1.790861 4-4s-1.790861-4-4-4-4 1.790861-4 4 1.790861 4 4 4zm0-6c1.1045695 0 2 .8954305 2 2s-.8954305 2-2 2-2-.8954305-2-2 .8954305-2 2-2z"/><path id="Shape" d="m6 7h3c.55228475 0 1-.44771525 1-1s-.44771525-1-1-1h-3c-.55228475 0-1 .44771525-1 1s.44771525 1 1 1z"/><path id="Shape" d="m13 7h8c.5522847 0 1-.44771525 1-1s-.4477153-1-1-1h-8c-.5522847 0-1 .44771525-1 1s.4477153 1 1 1z"/><path id="Shape" d="m21 11c.5522847 0 1-.4477153 1-1 0-.55228475-.4477153-1-1-1h-3c-.5522847 0-1 .44771525-1 1 0 .5522847.4477153 1 1 1z"/><path id="Shape" d="m6 11h8c.5522847 0 1-.4477153 1-1 0-.55228475-.4477153-1-1-1h-8c-.55228475 0-1 .44771525-1 1 0 .5522847.44771525 1 1 1z"/><path id="Shape" d="m6 37h3c.55228475 0 1-.4477153 1-1s-.44771525-1-1-1h-3c-.55228475 0-1 .4477153-1 1s.44771525 1 1 1z"/><path id="Shape" d="m16 51h-10c-.55228475 0-1 .4477153-1 1s.44771525 1 1 1h10c.5522847 0 1-.4477153 1-1s-.4477153-1-1-1z"/><path id="Shape" d="m36 51h-10c-.5522847 0-1 .4477153-1 1s.4477153 1 1 1h10c.5522847 0 1-.4477153 1-1s-.4477153-1-1-1z"/><path id="Shape" d="m36 35h-23c-.5522847 0-1 .4477153-1 1s.4477153 1 1 1h23c.5522847 0 1-.4477153 1-1s-.4477153-1-1-1z"/><path id="Shape" d="m36 39h-3c-.5522847 0-1 .4477153-1 1s.4477153 1 1 1h3c.5522847 0 1-.4477153 1-1s-.4477153-1-1-1z"/><path id="Shape" d="m6 41h23c.5522847 0 1-.4477153 1-1s-.4477153-1-1-1h-23c-.55228475 0-1 .4477153-1 1s.44771525 1 1 1z"/><path id="Shape" d="m6 45h3c.55228475 0 1-.4477153 1-1s-.44771525-1-1-1h-3c-.55228475 0-1 .4477153-1 1s.44771525 1 1 1z"/><path id="Shape" d="m36 43h-23c-.5522847 0-1 .4477153-1 1s.4477153 1 1 1h23c.5522847 0 1-.4477153 1-1s-.4477153-1-1-1z"/><path id="Shape" d="m59.91 11.59-4.38-9.59c-.541118-1.18698556-1.7254911-1.94869627-3.03-1.94869627s-2.488882.76171071-3.03 1.94869627l-4.38 9.64c-.050738.1138424-.081196.2356741-.09.36v44c0 2.209139 1.790861 4 4 4h7c2.209139 0 4-1.790861 4-4v-44c-.0026356-.1412684-.0332241-.280616-.09-.41zm-1.91 35.41h-2v-7c0-.5522847-.4477153-1-1-1s-1 .4477153-1 1v7h-3v-22c0-.5522847-.4477153-1-1-1s-1 .4477153-1 1v22h-2v-34h2v7c0 .5522847.4477153 1 1 1s1-.4477153 1-1v-7h3v22c0 .5522847.4477153 1 1 1s1-.4477153 1-1v-22h2zm-10.45-36 1.37-3h7.16l1.37 3zm3.74-8.22c.2162117-.47386769.6891372-.77791305 1.21-.77791305s.9937883.30404536 1.21.77791305l1.46 3.22h-5.34zm6.71 53.22c0 1.1045695-.8954305 2-2 2h-7c-1.1045695 0-2-.8954305-2-2v-7h11z"/></g></g></g></svg>