<svg height="512" viewBox="0 0 512 512" width="512" xmlns="http://www.w3.org/2000/svg"><path d="m496 144v72.07a40.184 40.184 0 0 1 -15.89 31.91l-49.15 37.12-20.96 71.57-15.39-4.36 20.42-69.66-27.43-27.66a39.958 39.958 0 0 1 -11.6-28.17v-37.87l-9.89-4.95a39.782 39.782 0 0 1 -22.11-35.78v-20.22h16v20.22a23.881 23.881 0 0 0 13.27 21.47l2.73 1.36v-59.05h16v80l6.41-4.8a24.117 24.117 0 0 0 9.59-19.2v-24h16v24a40.22 40.22 0 0 1 -15.99 32l-16.01 12v14.82a23.929 23.929 0 0 0 6.96 16.9l25.8 26.02 45.71-34.52a24.123 24.123 0 0 0 9.53-19.15v-3.54l-20.58-12.35a39.7 39.7 0 0 1 -10.25-8.86 40.142 40.142 0 0 1 -9.17-25.44v-53.88h16v53.88a24.086 24.086 0 0 0 11.66 20.58l12.34 7.41v-49.87z" fill="#d074cd"/><path d="m321.13 223.92-2.26-15.84-54.96 7.85-10.62-7.96a47.888 47.888 0 0 1 4.3-79.57l35.29 14.96 6.24-14.72-22.93-9.73 54.96-23.56-6.3-14.7-26.27 11.26 4.79-23.96 22.29-22.29-11.32-11.32-17.47 17.48-18.47-24.62-12.8 9.6 21.85 29.14-6.72 33.62-27.26 12.76a47.656 47.656 0 0 1 -46.7-2.1c-.21-.13-.42-.26-.62-.39a47.626 47.626 0 0 1 -20.56-28.11l28.07-28.06-11.32-11.32-18.34 18.35v-44.69h-16v20.69l-18.34-18.35-11.32 11.32 29.66 29.65v10.08a48 48 0 0 1 -69.47 42.93l-27.63-12.92-15.31-45.93-15.18 5.06 10.82 32.44-24.08-10.32-6.3 14.7 55.73 23.88 2.08 1.05-26.93 16.95 8.54 13.54 34.86-21.95a47.93 47.93 0 0 1 11.98 71.13 48.714 48.714 0 0 1 -8.39 8.01l-16.67 12.5c-.15.11-.3.23-.46.34l-12.45 8.83-9.61-4.81-31.95-15.98-7.16 14.32 19.73 9.86 13.66 6.83-26.25 17.49 8.88 13.32 48-32-.04-.07c.12-.08.27-.09.4-.19l3.2-2.4v28h16v-37.31a48.07 48.07 0 0 1 64 45.31 8 8 0 0 0 16 0 48 48 0 0 1 76.4-38.7l6.67 5 .13.1c.13.1.28.11.4.19l-.04.07 12.44 8.29v33.05h16v-22.39l19.56 13.05 8.88-13.32-41.88-27.91z" fill="#d074cd"/><path d="m282.56 229.43 41.88 27.91-8.88 13.32-19.56-13.05v22.39h-16v-33.05l-12.44-8.29.04-.07c-.12-.08-.27-.09-.4-.19l-.13-.1-6.67-5a48 48 0 0 0 -76.4 38.7 8 8 0 0 1 -16 0 48.07 48.07 0 0 0 -64-45.31v37.31h-16v-28l-3.2 2.4c-.13.1-.28.11-.4.19l.04.07-48 32-8.88-13.32 26.25-17.49-13.66-6.83c6.29-2.5 12.77-5.23 19.38-8.2l9.61 4.81 12.45-8.83c.16-.11.31-.23.46-.34l16.67-12.5a48.714 48.714 0 0 0 8.39-8.01c35.22-21.38 70.64-50.38 99.04-90.12.2.13.41.26.62.39a47.656 47.656 0 0 0 46.7 2.1l27.26-12.76 6.72-33.62-21.85-29.14 12.8-9.6 18.47 24.62 17.47-17.48 11.32 11.32-22.29 22.29-4.79 23.96 26.27-11.26 6.3 14.7-54.96 23.56 22.93 9.73-6.24 14.72-35.29-14.96a47.888 47.888 0 0 0 -4.3 79.57l10.62 7.96 54.96-7.85 2.26 15.84z" fill="#c46cc1"/><path d="m496 144v72.07a40.184 40.184 0 0 1 -15.89 31.91l-49.15 37.12-20.96 71.57-15.39-4.36 20.42-69.66-27.43-27.66a39.517 39.517 0 0 1 -3.79-4.42q6.585-4.26 13.2-9.07a24.01 24.01 0 0 0 1.95 2.22l25.8 26.02 45.71-34.52a24.123 24.123 0 0 0 9.53-19.15v-3.54l-20.58-12.35a39.7 39.7 0 0 1 -10.25-8.86q5.115-6.615 9.87-13.78a24.012 24.012 0 0 0 8.62 8.92l12.34 7.41v-49.87z" fill="#c46cc1"/><g fill="#4db7e5"><rect height="64" rx="16" width="48" x="152" y="272"/><path d="m320 456v16a16 16 0 0 1 -16 16h-32a16 16 0 0 1 -16-16v-16a16 16 0 0 1 16-16h32a16 16 0 0 1 16 16z"/><rect height="64" rx="16" transform="matrix(.947 -.321 .321 .947 -108.763 79.677)" width="48" x="163.283" y="337.726"/><rect height="64" rx="16" transform="matrix(.663 -.749 .749 .663 -240.163 316.046)" width="48" x="206.716" y="392.594"/><path d="m423.15 369.09-10.27 30.3a16 16 0 0 1 -20.29 10.02l-14.24-4.82-.91-.31a16 16 0 0 1 -10.02-20.29l10.27-30.31a16.008 16.008 0 0 1 20.29-10.02l9.88 3.35 5.27 1.79a16 16 0 0 1 10.02 20.29z"/><path d="m379.74 438.78-23.97 21.2a15.987 15.987 0 0 1 -22.58-1.38l-9.62-10.86-.99-1.12a16.018 16.018 0 0 1 1.38-22.59l23.97-21.2a16 16 0 0 1 22.59 1.38l4.17 4.71 6.43 7.27a16.009 16.009 0 0 1 -1.38 22.59z"/></g><path d="m318.84 450.02a15.847 15.847 0 0 1 1.16 5.98v16a16 16 0 0 1 -16 16h-32a16 16 0 0 1 -16-16v-3.34c17.83-2.75 40.36-8.14 62.84-18.64z" fill="#48add9"/><path d="m381.12 416.19a16.009 16.009 0 0 1 -1.38 22.59l-23.97 21.2a15.987 15.987 0 0 1 -22.58-1.38l-9.62-10.86c18.13-9.06 36-21.57 51.12-38.82z" fill="#48add9"/><path d="m423.15 369.09-10.27 30.3a16 16 0 0 1 -20.29 10.02l-14.24-4.82c12.51-15.39 22.87-34.31 29.51-57.58l5.27 1.79a16 16 0 0 1 10.02 20.29z" fill="#48add9"/><circle cx="160" cy="160" fill="#4db7e5" r="16"/><path d="m184 176h16v16h-16z" fill="#4db7e5"/><path d="m184 136h16v16h-16z" fill="#4db7e5"/><path d="m152 192h16v16h-16z" fill="#4db7e5"/></svg>