<svg height="512" viewBox="0 0 60 60" width="512" xmlns="http://www.w3.org/2000/svg"><g id="Page-1" fill="none" fill-rule="evenodd"><g id="010---Science-Book" fill-rule="nonzero"><path id="Rectangle-path" d="m49 45h4v14h-4z" fill="#ff9801"/><path id="Rectangle-path" d="m7 45h4v14h-4z" fill="#ff9801"/><path id="Rectangle-path" d="m11 45h38v14h-38z" fill="#ffdc00"/><path id="Shape" d="m7 45v14h-4c-1.10320187-.0032948-1.9967052-.8967981-2-2v-10c.0032948-1.1032019.89679813-1.9967052 2-2z" fill="#ffdc00"/><path id="Shape" d="m59 47v10c-.0032948 1.1032019-.8967981 1.9967052-2 2h-4v-14h4c1.1032019.0032948 1.9967052.8967981 2 2z" fill="#ffdc00"/><path id="Shape" d="m57 45h-3c1.1032019.0032948 1.9967052.8967981 2 2v10c-.0032948 1.1032019-.8967981 1.9967052-2 2h3c1.1032019-.0032948 1.9967052-.8967981 2-2v-10c-.0032948-1.1032019-.8967981-1.9967052-2-2z" fill="#fec108"/><rect id="Rectangle-path" fill="#f5f5f5" height="4" rx="1" width="14" x="15" y="50"/><path id="Shape" d="m47.99 45h-14c-.6247896.0044795-1.2417127-.1394693-1.8-.42-1.0223017-.5182477-1.7737379-1.4494657-2.0642985-2.5581838-.2905606-1.1087182-.0924277-2.2887888.5442985-3.2418162l4.92-6.78h10.81l4.92 6.78c.8191284 1.2277332.895631 2.8067738.1990246 4.1079424-.6966063 1.3011687-2.0531184 2.1130166-3.5290246 2.1120576z" fill="#e91e63"/><path id="Shape" d="m51.32 38.78-4.92-6.78h-3l4.92 6.78c.8191284 1.2277332.895631 2.8067738.1990246 4.1079424-.6966063 1.3011687-2.0531184 2.1130166-3.5290246 2.1120576h3c1.4759062.000959 2.8324183-.8108889 3.5290246-2.1120576.6966064-1.3011686.6201038-2.8802092-.1990246-4.1079424z" fill="#ad1457"/><path id="Shape" d="m46.4 32h-10.81l.06-.08.84-1.16c.3268745-.4955679.5007579-1.0763386.5-1.67v-7.09h8v7.09c.0028549.5945891.1801858 1.1752608.51 1.67z" fill="#02a9f4"/><path id="Shape" d="m45.5 30.76c-.3298142-.4947392-.5071451-1.0754109-.51-1.67v-7.09h-3v7.09c.0028549.5945891.1801858 1.1752608.51 1.67l.9 1.24h3z" fill="#0377bc"/><rect id="Rectangle-path" fill="#02a9f4" height="4" rx="2" width="12" x="34.993" y="18"/><path id="Shape" d="m44.993 18h-3c1.1045695 0 2 .8954305 2 2s-.8954305 2-2 2h3c1.1045695 0 2-.8954305 2-2s-.8954305-2-2-2z" fill="#0377bc"/><path id="Shape" d="m32.19 44.58c-.13.14-.27.28-.41.42h-19.58c-4.17681863-4.0824608-5.37699576-10.3305589-3.01-15.67 2.1418356-.9474702 4.4690647-1.4019804 6.81-1.33 7.58 0 11.57 3.59 17.93-.29.8041641 1.297562 1.3855256 2.7205457 1.72 4.21l-4.98 6.86c-.6367262.9530274-.8348591 2.133098-.5442985 3.2418162.2905606 1.1087181 1.0419968 2.0399361 2.0642985 2.5581838z" fill="#9d27b0"/><path id="Shape" d="m30.67 38.78 4.98-6.86c-.3344744-1.4894543-.9158359-2.912438-1.72-4.21-.7489385.4620124-1.5422225.8479344-2.368 1.152.4832631.9723213.8485227 1.9989426 1.088 3.058l-4.98 6.86c-.6367262.9530274-.8348591 2.133098-.5442985 3.2418162.2905606 1.1087181 1.0419968 2.0399361 2.0642985 2.5581838-.13.14-.27.28-.41.42h3c.14-.14.28-.28.41-.42-1.0223017-.5182477-1.7737379-1.4494657-2.0642985-2.5581838-.2905606-1.1087182-.0924277-2.2887888.5442985-3.2418162z" fill="#6a1b9a"/><path id="Shape" d="m33.93 27.71c-6.36 3.88-10.35.29-17.93.29-2.3409353-.0719804-4.6681644.3825298-6.81 1.33 1.4752959-3.319982 4.1822402-5.9372924 7.55-7.3.7541333-.30506 1.2483521-1.0365039 1.25-1.85v-9.18h8v9.18c-.0019406.8145944.4935088 1.5478595 1.25 1.85 2.7821322 1.1257291 5.1278723 3.117329 6.69 5.68z" fill="#02a9f4"/><path id="Shape" d="m27.24 22.03c-.7564912-.3021405-1.2519406-1.0354056-1.25-1.85v-9.18h-3.0000057l.0000057 9.18c-.0019406.8145944.4935088 1.5478595 1.25 1.85 2.7821322 1.1257291 5.1278723 3.117329 6.69 5.68-1.4124884.8997416-3.0034515 1.4821508-4.663 1.707 2.6763166.3666635 5.3953644-.2390281 7.663-1.707-1.5621277-2.562671-3.9078678-4.5542709-6.69-5.68z" fill="#0377bc"/><rect id="Rectangle-path" fill="#02a9f4" height="4" rx="2" width="12" x="15.987" y="7"/><path id="Shape" d="m25.987 7h-3c1.1045695 0 2 .8954305 2 2s-.8954305 2-2 2h3c1.1045695 0 2-.8954305 2-2s-.8954305-2-2-2z" fill="#0377bc"/><circle id="Oval" cx="38" cy="11" fill="#e91e63" r="2"/><circle id="Oval" cx="45" cy="3" fill="#e91e63" r="2"/><circle id="Oval" cx="15" cy="34" fill="#673ab7" r="2"/><circle id="Oval" cx="24" cy="39" fill="#673ab7" r="2"/><g fill="#000"><path id="Shape" d="m57 44h-5.008c.1525362-.2030907.289589-.4173612.41-.641.8892341-1.6353921.7844937-3.6316449-.271-5.165l-5.8-7.992c-.2191722-.3286937-.3360886-.7149354-.336-1.11v-6.276c1.3765475-.4848523 2.2026937-1.8918441 1.9553873-3.330178s-1.49595-2.4885874-2.9553873-2.485822h-8c-1.4594373-.0027654-2.7080809 1.0474881-2.9553873 2.485822s.5788398 2.8453257 1.9553873 3.330178v6.276c-.0050143.1437752-.0254651.2865952-.061.426-1.5015764-3.8272005-4.5082024-6.8703384-8.317-8.418-.3802583-.1483411-.6296327-.51584-.627-.924v-8.361c1.3750133-.485871 2.1996867-1.89202383 1.9525268-3.32925869s-1.4941955-2.48711791-2.9525268-2.48574131h-8c-1.4622999-.00707916-2.715477 1.0438699-2.9632295 2.48504641-.2477526 1.44117651.5825153 2.85029039 1.9632295 3.33195359v8.363c-.0014699.4057733-.2479989.7704309-.624.923-4.3212256 1.7388273-7.58603851 5.3911084-8.83138612 9.8794957-1.24534761 4.4883872-.3291305 9.3007367 2.47838612 13.0175043h-7.013c-1.65685425 0-3 1.3431458-3 3v10c0 1.6568542 1.34314575 3 3 3h54c1.6568542 0 3-1.3431458 3-3v-10c0-1.6568542-1.3431458-3-3-3zm-5 14h-2v-12h2zm-39.8-12h35.8v12h-36v-12zm38.439-3.584c-.515393.9822075-1.5368255 1.5936773-2.646 1.584h-14c-1.0993.0000353-2.1105788-.6011827-2.6356947-1.5669539-.5251159-.9657711-.4799581-2.1414022.1176947-3.0640461l4.625-6.369h9.79l4.6 6.336c.6227409.9176843.6802513 2.1064895.149 3.08zm-12.646-19.416h6v6.092c.0040629.6678614.1760015 1.3239791.5 1.908h-6.993c.3242796-.5839081.4962374-1.240099.5-1.908zm-1-4h8c.5522847 0 1 .4477153 1 1s-.4477153 1-1 1h-8c-.5522847 0-1-.4477153-1-1s.4477153-1 1-1zm-19.007-11h8c.5522847 0 1 .44771525 1 1s-.4477153 1-1 1h-8c-.5522847 0-1-.44771525-1-1s.4477153-1 1-1zm-.864 14.954c1.1281154-.4596529 1.8662809-1.5558366 1.868-2.774v-8.18h6v8.18c-.0005407 1.221647.7416791 2.320924 1.875 2.777 2.248154.9167798 4.19465 2.4448086 5.619 4.411-3.345 1.7-6.035 1.166-9.365.5-2.3366906-.5342119-4.7224057-.8250955-7.119-.868-1.5714499-.0079005-3.1380035.1757876-4.665.547 1.4431845-2.059416 3.4536911-3.6551059 5.787-4.593zm-8.132 12.046c-.0004698-1.6774835.32312546-3.3392623.953-4.894 1.9217227-.7803684 3.9834987-1.1568459 6.057-1.106 2.2654419.0425717 4.5202826.3210754 6.728.831 1.6900764.3988221 3.4154974.6292802 5.151.688 1.9828085.0035756 3.9344348-.4934459 5.674-1.445.4290416.8434963.7643756 1.7314609 1 2.648l-4.72 6.5c-1.038686 1.5287472-1.1344393 3.5102226-.248 5.132.122402.2251612.2611052.4410702.415.646h-17.384c-2.3365715-2.4120357-3.63781753-5.6418245-3.626-9zm-6.99 22v-10c0-.5522847.44771525-1 1-1h3v12h-3c-.55228475 0-1-.4477153-1-1zm6-11h2v12h-2zm50 11c0 .5522847-.4477153 1-1 1h-3v-12h3c.5522847 0 1 .4477153 1 1z"/><path id="Shape" d="m16 55h12c1.1045695 0 2-.8954305 2-2v-2c0-1.1045695-.8954305-2-2-2h-12c-1.1045695 0-2 .8954305-2 2v2c0 1.1045695.8954305 2 2 2zm0-4h12v2h-12z"/><path id="Shape" d="m45 56c.5522847 0 1-.4477153 1-1v-6c0-.5522847-.4477153-1-1-1s-1 .4477153-1 1v6c0 .5522847.4477153 1 1 1z"/><path id="Shape" d="m41 54c.5522847 0 1-.4477153 1-1v-2c0-.5522847-.4477153-1-1-1s-1 .4477153-1 1v2c0 .5522847.4477153 1 1 1z"/><path id="Shape" d="m38 14c1.6568542 0 3-1.3431458 3-3 0-1.65685425-1.3431458-3-3-3s-3 1.34314575-3 3c0 1.6568542 1.3431458 3 3 3zm0-4c.5522847 0 1 .4477153 1 1s-.4477153 1-1 1-1-.4477153-1-1 .4477153-1 1-1z"/><path id="Shape" d="m45 6c1.6568542 0 3-1.34314575 3-3s-1.3431458-3-3-3-3 1.34314575-3 3 1.3431458 3 3 3zm0-4c.5522847 0 1 .44771525 1 1s-.4477153 1-1 1-1-.44771525-1-1 .4477153-1 1-1z"/><circle id="Oval" cx="45" cy="14" r="1"/><circle id="Oval" cx="38" cy="3" r="1"/><circle id="Oval" cx="25" cy="3" r="1"/><circle id="Oval" cx="20" cy="1" r="1"/><path id="Shape" d="m15 31c-1.6568542 0-3 1.3431458-3 3s1.3431458 3 3 3 3-1.3431458 3-3-1.3431458-3-3-3zm0 4c-.5522847 0-1-.4477153-1-1s.4477153-1 1-1 1 .4477153 1 1-.4477153 1-1 1z"/><path id="Shape" d="m24 36c-1.6568542 0-3 1.3431458-3 3s1.3431458 3 3 3 3-1.3431458 3-3-1.3431458-3-3-3zm0 4c-.5522847 0-1-.4477153-1-1s.4477153-1 1-1 1 .4477153 1 1-.4477153 1-1 1z"/><circle id="Oval" cx="23" cy="33" r="1"/><circle id="Oval" cx="16" cy="41" r="1"/><circle id="Oval" cx="36" cy="40" r="1"/><circle id="Oval" cx="46" cy="41" r="1"/><circle id="Oval" cx="42" cy="37" r="1"/></g></g></g></svg>