<svg height="451pt" viewBox="-2 0 451 451.76" width="451pt" xmlns="http://www.w3.org/2000/svg"><path d="m412.28125 22.355469c-1.945312 23.125-26.050781 26.777343-26.050781 26.777343 20.695312.972657 25.851562 28.117188 25.851562 28.117188.441407-19.355469 26.640625-28.402344 26.640625-28.402344-19.625-1.175781-26.441406-26.492187-26.441406-26.492187zm0 0" fill="#d7e057"/><path d="m438.90625 45.851562c-17.207031-1.03125-23.664062-24.050781-23.726562-24.28125-.378907-1.40625-1.6875-2.316406-3.167969-2.203124-1.449219.128906-2.597657 1.28125-2.71875 2.734374-1.71875 20.429688-22.621094 23.925782-23.507813 24.0625-1.523437.230469-2.625 1.582032-2.546875 3.125.082031 1.539063 1.316407 2.765626 2.859375 2.839844 18.050782.851563 22.996094 25.4375 23.039063 25.683594.277343 1.421875 1.519531 2.433594 2.949219 2.433594.082031 0 .167968 0 .25-.007813 1.53125-.128906 2.714843-1.386719 2.75-2.917969.386718-17.019531 24.382812-25.554687 24.625-25.636718 1.351562-.472656 2.183593-1.828125 1.988281-3.246094-.199219-1.417969-1.363281-2.5-2.792969-2.585938zm-27.132812 20.691407c-2.714844-6.261719-7.417969-13.816407-15.175782-17.753907 5.863282-2.808593 12.816406-7.828124 16.40625-16.546874 3.101563 6.144531 8.394532 13.761718 16.667969 17.445312-6.015625 3.28125-13.847656 8.8125-17.898437 16.855469zm0 0" fill="#3a312a"/><path d="m368.882812 56.3125c-1.375 16.359375-18.421874 18.945312-18.421874 18.945312 14.636718.6875 18.28125 19.886719 18.28125 19.886719.3125-13.691406 18.847656-20.089843 18.847656-20.089843-13.882813-.832032-18.707032-18.742188-18.707032-18.742188zm0 0" fill="#d7e057"/><path d="m387.765625 72.058594c-11.53125-.691406-15.945313-16.371094-15.988281-16.527344-.378906-1.40625-1.734375-2.324219-3.160156-2.207031-1.453126.132812-2.601563 1.289062-2.722657 2.738281-1.15625 13.742188-15.292969 16.132812-15.882812 16.226562-1.527344.230469-2.628907 1.582032-2.546875 3.121094.078125 1.542969 1.3125 2.769532 2.855468 2.84375 12.070313.566406 15.449219 17.289063 15.476563 17.453125.273437 1.425781 1.519531 2.4375 2.945313 2.4375.082031 0 .167968 0 .25-.007812 1.53125-.125 2.71875-1.390625 2.753906-2.921875.261718-11.417969 16.660156-17.269532 16.824218-17.324219 1.351563-.46875 2.1875-1.828125 1.992188-3.246094-.199219-1.417969-1.367188-2.5-2.796875-2.585937zm-19.167969 13.589844c-1.851562-3.769532-4.683594-7.894532-8.894531-10.558594 3.710937-2.082032 7.394531-5.261719 9.742187-9.835938 2.113282 3.75 5.308594 7.910156 9.878907 10.449219-3.695313 2.199219-7.976563 5.480469-10.726563 9.945313zm0 0" fill="#3a312a"/><path d="m368.882812 3c-1.375 16.359375-18.421874 18.941406-18.421874 18.941406 14.636718.6875 18.28125 19.886719 18.28125 19.886719.3125-13.691406 18.847656-20.089844 18.847656-20.089844-13.882813-.832031-18.707032-18.738281-18.707032-18.738281zm0 0" fill="#d7e057"/><path d="m387.765625 18.742188c-11.488281-.6875-15.910156-16.25-15.984375-16.523438-.382812-1.410156-1.726562-2.332031-3.164062-2.2070312-1.453126.1289062-2.601563 1.2851562-2.722657 2.7343752-1.15625 13.742187-15.292969 16.132812-15.882812 16.226562-1.527344.230469-2.628907 1.582032-2.546875 3.125.078125 1.539063 1.3125 2.765625 2.855468 2.839844 12.070313.570312 15.449219 17.289062 15.476563 17.453125.273437 1.425781 1.519531 2.4375 2.945313 2.4375.082031 0 .167968 0 .25-.007813 1.53125-.125 2.71875-1.386718 2.753906-2.921874.261718-11.417969 16.660156-17.269532 16.824218-17.324219 1.351563-.46875 2.1875-1.828125 1.992188-3.246094-.199219-1.417969-1.367188-2.5-2.796875-2.585937zm-19.167969 13.589843c-1.851562-3.769531-4.683594-7.894531-8.894531-10.558593 3.710937-2.082032 7.394531-5.257813 9.742187-9.832032 2.113282 3.746094 5.308594 7.90625 9.878907 10.445313-3.695313 2.203125-7.976563 5.480469-10.726563 9.945312zm0 0" fill="#3a312a"/><path d="m300.992188 49.921875h-261.769532c-19.792968 0-35.839844 16.046875-35.839844 35.84375v327.148437c0 19.796876 16.046876 35.84375 35.839844 35.84375h261.769532c19.796874 0 35.847656-16.046874 35.847656-35.84375v-327.148437c-.003906-19.796875-16.050782-35.84375-35.847656-35.84375zm0 0" fill="#fce8cb"/><path d="m300.992188 46.921875h-261.769532c-21.417968 0-38.84375 17.425781-38.84375 38.84375v167.054687c0 1.65625 1.34375 3 3 3s3-1.34375 3-3v-167.054687c0-18.113281 14.734375-32.84375 32.84375-32.84375h261.769532c18.113281 0 32.84375 14.734375 32.84375 32.84375v327.152344c0 18.109375-14.730469 32.84375-32.84375 32.84375h-261.769532c-18.109375 0-32.84375-14.734375-32.84375-32.84375v-129.480469c0-1.65625-1.34375-3-3-3s-3 1.34375-3 3v129.480469c0 21.417969 17.425782 38.84375 38.84375 38.84375h261.769532c21.417968 0 38.84375-17.425781 38.84375-38.84375v-327.152344c0-21.417969-17.425782-38.84375-38.84375-38.84375zm0 0" fill="#3a312a"/><path d="m300.992188 49.921875h-261.769532c-19.792968 0-35.839844 16.046875-35.839844 35.84375v20.113281h333.457032v-20.113281c-.003906-19.796875-16.050782-35.84375-35.847656-35.84375zm0 0" fill="#87796f"/><path d="m300.992188 46.921875h-261.769532c-21.417968 0-38.84375 17.425781-38.84375 38.84375v20.113281c0 1.660156 1.34375 3 3 3h333.457032c1.65625 0 3-1.339844 3-3v-20.113281c0-21.417969-17.425782-38.84375-38.84375-38.84375zm32.84375 55.957031h-327.457032v-17.113281c0-18.113281 14.734375-32.84375 32.84375-32.84375h261.769532c18.113281 0 32.84375 14.734375 32.84375 32.84375zm0 0" fill="#3a312a"/><path d="m219.601562 28.167969c-4.601562 0-8.90625 1.238281-12.632812 3.371093-4.226562-16.414062-19.125-28.542968-36.859375-28.542968s-32.636719 12.128906-36.863281 28.542968c-3.722656-2.132812-8.03125-3.371093-12.632813-3.371093-14.070312 0-25.476562 11.40625-25.476562 25.476562 0 14.070313 11.40625 25.472657 25.476562 25.472657h98.988281c14.070313 0 25.472657-11.40625 25.472657-25.472657 0-14.070312-11.402344-25.476562-25.472657-25.476562zm0 0" fill="#8ac6dd"/><g fill="#3a312a"><path d="m219.601562 25.167969c-3.703124 0-7.375.730469-10.792968 2.136719-5.757813-16.246094-21.183594-27.304688-38.703125-27.304688-17.515625 0-32.945313 11.058594-38.703125 27.304688-3.417969-1.40625-7.089844-2.136719-10.789063-2.136719-15.703125 0-28.476562 12.773437-28.476562 28.476562s12.773437 28.472657 28.476562 28.472657h44.226563c1.65625 0 3-1.339844 3-3 0-1.65625-1.34375-3-3-3h-44.222656c-12.394532 0-22.476563-10.082032-22.476563-22.472657 0-12.394531 10.082031-22.476562 22.476563-22.476562 3.890624 0 7.742187 1.03125 11.140624 2.976562.8125.464844 1.796876.527344 2.65625.160157.863282-.363282 1.507813-1.109376 1.738282-2.015626 3.984375-15.480468 17.949218-26.292968 33.957031-26.292968 16.003906 0 29.964844 10.8125 33.953125 26.292968.234375.90625.878906 1.652344 1.738281 2.015626.859375.367187 1.84375.304687 2.660157-.160157 3.398437-1.949219 7.25-2.976562 11.140624-2.976562 12.390626 0 22.472657 10.082031 22.472657 22.476562 0 12.390625-10.082031 22.472657-22.472657 22.472657h-25.257812c-1.65625 0-3 1.34375-3 3 0 1.660156 1.34375 3 3 3h25.257812c15.699219 0 28.472657-12.773438 28.472657-28.472657s-12.773438-28.476562-28.472657-28.476562zm0 0"/><path d="m294.71875 163.503906h-106.167969c-1.65625 0-3 1.34375-3 3s1.34375 3 3 3h106.167969c1.65625 0 3-1.34375 3-3s-1.34375-3-3-3zm0 0"/><path d="m294.71875 207.503906h-106.167969c-1.65625 0-3 1.34375-3 3s1.34375 3 3 3h106.167969c1.65625 0 3-1.34375 3-3s-1.34375-3-3-3zm0 0"/><path d="m294.71875 251.507812h-106.167969c-1.65625 0-3 1.34375-3 3 0 1.652344 1.34375 3 3 3h106.167969c1.65625 0 3-1.347656 3-3 0-1.65625-1.34375-3-3-3zm0 0"/><path d="m294.71875 295.507812h-106.167969c-1.65625 0-3 1.34375-3 3 0 1.652344 1.34375 3 3 3h106.167969c1.65625 0 3-1.347656 3-3 0-1.65625-1.34375-3-3-3zm0 0"/><path d="m294.71875 339.507812h-106.167969c-1.65625 0-3 1.34375-3 3 0 1.652344 1.34375 3 3 3h106.167969c1.65625 0 3-1.347656 3-3 0-1.65625-1.34375-3-3-3zm0 0"/><path d="m294.71875 383.507812h-106.167969c-1.65625 0-3 1.34375-3 3 0 1.652344 1.34375 3 3 3h106.167969c1.65625 0 3-1.347656 3-3 0-1.65625-1.34375-3-3-3zm0 0"/></g><path d="m113.125 181.207031-35.230469-47.855469c-10.070312-13.679687-29.324219-16.609374-43.003906-6.539062s-16.605469 29.324219-6.535156 43.003906l6.746093 9.164063 13.410157 18.21875 15.074219 20.476562c.570312.773438 1.660156.9375 2.433593.367188l46.738281-34.402344c.769532-.570313.9375-1.660156.367188-2.433594zm0 0" fill="#f16c7a"/><path d="m115.539062 179.429688-35.226562-47.859376c-11.035156-14.984374-32.203125-18.207031-47.199219-7.171874-7.261719 5.34375-12.007812 13.199218-13.363281 22.113281-1.355469 8.914062.84375 17.824219 6.1875 25.085937l35.226562 47.855469c.929688 1.261719 2.371094 1.929687 3.824219 1.929687.976563 0 1.960938-.300781 2.808594-.921874l46.730469-34.402344c1.023437-.75 1.691406-1.855469 1.878906-3.109375.191406-1.25-.117188-2.5-.867188-3.519531zm-50.285156 35.453124-14.324218-19.460937-20.15625-27.382813c-4.398438-5.972656-6.207032-13.296874-5.089844-20.625 1.113281-7.332031 5.015625-13.789062 10.988281-18.183593 4.945313-3.640625 10.707031-5.390625 16.417969-5.390625 8.53125 0 16.957031 3.90625 22.390625 11.289062l34.480469 46.84375zm0 0" fill="#3a312a"/><path d="m150.410156 231.875-36.261718-49.261719-49.53125 36.460938 36.261718 49.265625c10.070313 13.675781 29.320313 16.601562 42.996094 6.535156 13.679688-10.070312 16.605469-29.324219 6.535156-43zm0 0" fill="#d7e057"/><path d="m152.828125 230.097656-36.261719-49.261718c-.46875-.640626-1.179687-1.070313-1.964844-1.191407-.785156-.113281-1.585937.078125-2.230468.550781l-49.535156 36.460938c-.640626.472656-1.066407 1.179688-1.1875 1.964844-.121094.789062.078124 1.589844.550781 2.230468l36.261719 49.261719c5.34375 7.261719 13.199218 12.007813 22.109374 13.363281 1.71875.261719 3.441407.390626 5.144532.390626 7.144531 0 14.078125-2.261719 19.941406-6.578126 7.257812-5.34375 12.003906-13.199218 13.359375-22.109374 1.355469-8.914063-.839844-17.820313-6.1875-25.082032zm-10.730469 42.359375c-5.972656 4.394531-13.308594 6.199219-20.625 5.085938-7.328125-1.113281-13.785156-5.015625-18.179687-10.988281l-34.484375-46.84375 44.707031-32.90625 34.480469 46.847656c9.070312 12.324218 6.425781 29.730468-5.898438 38.804687zm0 0" fill="#3a312a"/><path d="m151.71875 360.328125c0 35.898437-29.101562 65-65 65s-65-29.101563-65-65 29.101562-65 65-65 65 29.101563 65 65zm0 0" fill="#f16c7a"/><path d="m86.71875 292.328125c-37.496094 0-68 30.503906-68 68s30.503906 68 68 68 68-30.503906 68-68-30.503906-68-68-68zm0 130c-34.1875 0-62-27.8125-62-62s27.8125-62 62-62 62 27.8125 62 62-27.8125 62-62 62zm0 0" fill="#3a312a"/><path d="m86.71875 292.328125c-1.65625 0-3 1.34375-3 3v130c0 1.65625 1.34375 3 3 3s3-1.34375 3-3v-130c0-1.65625-1.34375-3-3-3zm0 0" fill="#3a312a"/><path d="m260.644531 401.917969 140.734375-250.835938 33.164063 18.605469-140.734375 250.835938zm0 0" fill="#8ac6dd"/><path d="m437.445312 168.882812c-.214843-.765624-.726562-1.417968-1.417968-1.804687l-33.167969-18.609375c-1.445313-.8125-3.273437-.296875-4.085937 1.148438l-140.738282 250.835937c-.8125 1.445313-.296875 3.273437 1.148438 4.085937l33.164062 18.609376c.453125.253906.957032.382812 1.464844.382812.273438 0 .546875-.039062.8125-.113281.765625-.214844 1.414062-.726563 1.804688-1.421875l140.742187-250.835938c.390625-.691406.488281-1.511718.273437-2.277344zm-144.777343 247.566407-27.933594-15.675781 137.804687-245.605469 27.933594 15.671875zm0 0" fill="#3a312a"/><path d="m296.324219 338.324219 69.375-123.652344 33.164062 18.609375-69.375 123.648438zm0 0" fill="#d7e057"/><path d="m400.34375 230.671875-33.164062-18.609375c-.695313-.386719-1.507813-.488281-2.28125-.273438-.765626.214844-1.414063.726563-1.804688 1.421876l-69.378906 123.648437c-.386719.695313-.484375 1.515625-.269532 2.28125.214844.765625.726563 1.414063 1.417969 1.804687l33.164063 18.609376c.464844.257812.96875.382812 1.464844.382812 1.050781 0 2.070312-.550781 2.621093-1.535156l69.378907-123.648438c.8125-1.445312.296874-3.273437-1.148438-4.082031zm-71.996094 122.183594-27.933594-15.671875 66.445313-118.417969 27.933594 15.671875zm0 0" fill="#3a312a"/><path d="m433.980469 131.867188c-9.160157-5.140626-20.75-1.882813-25.886719 7.277343l-6.699219 11.941407 33.164063 18.605468 6.699218-11.941406c5.136719-9.15625 1.878907-20.746094-7.277343-25.882812zm0 0" fill="#f16c7a"/><path d="m445.867188 142.488281c-1.589844-5.660156-5.292969-10.359375-10.417969-13.238281-5.128907-2.875-11.074219-3.585938-16.730469-1.992188-5.664062 1.589844-10.363281 5.289063-13.242188 10.417969l-6.699218 11.941407c-.390625.695312-.488282 1.515624-.273438 2.28125.214844.765624.722656 1.414062 1.417969 1.804687l33.167969 18.605469c.453125.253906.957031.386718 1.464844.386718.273437 0 .546874-.039062.8125-.113281.765624-.214843 1.414062-.726562 1.804687-1.421875l6.699219-11.941406c2.882812-5.125 3.585937-11.070312 1.996094-16.730469zm-7.226563 13.796875-5.230469 9.324219-27.933594-15.671875 5.234376-9.324219c2.089843-3.730469 5.511718-6.421875 9.628906-7.582031 4.121094-1.152344 8.445312-.640625 12.171875 1.453125 3.726562 2.089844 6.421875 5.511719 7.578125 9.628906 1.160156 4.117188.644531 8.441407-1.449219 12.171875zm0 0" fill="#3a312a"/><path d="m260.652344 401.921875-1.546875 32.445313c-.199219 4.128906 4.402343 6.710937 7.824219 4.394531l26.886718-18.230469zm0 0" fill="#87796f"/><path d="m295.285156 417.914062-33.164062-18.609374c-.910156-.507813-2.015625-.511719-2.921875-.007813-.910157.503906-1.496094 1.441406-1.542969 2.480469l-1.546875 32.449218c-.144531 3.050782 1.417969 5.875 4.085937 7.375 1.230469.6875 2.578126 1.03125 3.925782 1.03125 1.570312 0 3.132812-.464843 4.496094-1.390624l26.882812-18.226563c.863281-.582031 1.359375-1.570313 1.3125-2.609375-.042969-1.039062-.621094-1.980469-1.527344-2.492188zm-30.039062 18.363282c-.929688.625-1.789063.273437-2.117188.089844-.328125-.183594-1.082031-.730469-1.027344-1.855469l1.3125-27.597657 24.699219 13.859376zm0 0" fill="#3a312a"/><path d="m447.578125 181.753906c-1.765625-6.273437-5.867187-11.488281-11.550781-14.675781-1.449219-.808594-3.273438-.296875-4.085938 1.148437-.808594 1.445313-.292968 3.273438 1.148438 4.082032 4.289062 2.40625 7.378906 6.335937 8.710937 11.070312 1.328125 4.730469.738281 9.699219-1.667969 13.984375l-58.996093 105.148438c-.8125 1.445312-.292969 3.273437 1.148437 4.085937.460938.261719.96875.382813 1.464844.382813 1.046875 0 2.066406-.550781 2.621094-1.53125l58.992187-105.152344c3.191407-5.679687 3.980469-12.265625 2.214844-18.542969zm0 0" fill="#3a312a"/><path d="m228.039062 400.449219c-.238281.398437-.339843.839843-.378906 1.257812v.082031l-1.558594 32.4375c-.140624 3.0625 1.417969 5.882813 4.097657 7.382813 1.222656.679687 2.582031 1.019531 3.921875 1.019531 1.558594 0 3.140625-.460937 4.5-1.382812l17.71875-12.019532 1.320312-27.4375v-.082031c.039063-.417969.140625-.859375.378906-1.257812l6.140626-10.941407h-30zm30.820313-54.941407-21.320313 38h30l21.320313-38zm44.980469-236.621093v156.460937l-16.917969 30.160156h7.796875c1.660156 0 3 1.339844 3 3 0 1.660157-1.339844 3-3 3h-11.160156l-21.320313 38h30l41.601563-74.160156v-156.460937zm0 299.921875v4.097656c0 18.121094-14.738282 32.863281-32.839844 32.863281h30c18.101562 0 32.839844-14.742187 32.839844-32.863281v-57.558594l-1.71875 3.058594zm0 0" fill="#decaad"/><path d="m301 52.929688h-30c18.101562 0 32.839844 14.71875 32.839844 32.839843v17.117188h30v-17.117188c0-18.121093-14.738282-32.839843-32.839844-32.839843zm0 0" fill="#695b51"/></svg>