<svg height="512" viewBox="0 0 64 64" width="512" xmlns="http://www.w3.org/2000/svg"><g id="chimney"><path d="m59 3a2 2 0 0 1 .42 3.95 3.984 3.984 0 1 1 -6.89 4 4.748 4.748 0 0 1 -.53.05 3.737 3.737 0 0 1 -1.01-.15c0 .05.01.1.01.15a2 2 0 1 1 -2.42-1.95 3.984 3.984 0 1 1 6.89-4 4.748 4.748 0 0 1 .53-.05 3.737 3.737 0 0 1 1.01.15c0-.05-.01-.1-.01-.15a2.006 2.006 0 0 1 2-2z" fill="#ffe477"/><path d="m61 57a4 4 0 0 1 -8 0c0-3 4-8 4-8s4 5 4 8z" fill="#ff5023"/><circle cx="57" cy="19" fill="#e0e0e2" r="2"/><path d="m57 33a4 4 0 0 1 -8 0c0-3 4-8 4-8s4 5 4 8z" fill="#ff5023"/><path d="m53 47a4 4 0 0 1 -8 0c0-3 4-8 4-8s4 5 4 8z" fill="#ff5023"/><g fill="#cd2a00"><path d="m61 57a3.995 3.995 0 0 1 -7.64 1.64 3.931 3.931 0 0 0 1.64.36 4 4 0 0 0 4-4c0-1.65-1.21-3.91-2.3-5.6.18-.26.3-.4.3-.4s4 5 4 8z"/><path d="m57 33a3.995 3.995 0 0 1 -7.64 1.64 3.931 3.931 0 0 0 1.64.36 4 4 0 0 0 4-4c0-1.65-1.21-3.91-2.3-5.6.18-.26.3-.4.3-.4s4 5 4 8z"/><path d="m53 47a3.995 3.995 0 0 1 -7.64 1.64 3.931 3.931 0 0 0 1.64.36 4 4 0 0 0 4-4c0-1.65-1.21-3.91-2.3-5.6.18-.26.3-.4.3-.4s4 5 4 8z"/></g><path d="m50.33 19.32a2 2 0 1 1 -2.82 2.83l-5.66-5.66a2 2 0 1 1 2.83-2.82z" fill="#00d7df"/><path d="m50.33 22.15a1.98 1.98 0 0 1 -2.82 0l-.71-.71-.01-.01a1.968 1.968 0 0 0 -.46-2.11l-4.94-4.94a2.018 2.018 0 0 1 .46-.71 1.992 1.992 0 0 1 2.83 0l5.65 5.65a1.986 1.986 0 0 1 0 2.83z" fill="#00b6bd"/><path d="m38.72 29.52a20 20 0 1 1 -4.24-4.24l8.08-8.08 4.24 4.24z" fill="#00d7df"/><path d="m38.72 29.52a19.989 19.989 0 0 1 -30.23 25.99 18.623 18.623 0 0 1 -1.85-2.15 19.981 19.981 0 0 0 28.08-27.84l8.08-8.08 4 4z" fill="#00b6bd"/><circle cx="41" cy="5" fill="#e0e0e2" r="2"/><circle cx="36" cy="11" fill="#e0e0e2" r="2"/><path d="m33.95 30.05a16 16 0 0 1 -22.63 22.63l-.7-.71c1.88-1.88 4.71.94 6.59-.94s-.94-4.71.94-6.6 4.72.95 6.6-.94-.94-4.71.94-6.6 4.72.94 6.61-.94-.94-4.72.94-6.61z" fill="#ff5023"/><path d="m33.95 52.68a16.018 16.018 0 0 1 -22.63 0l-.7-.71a2.27 2.27 0 0 1 .59-.43 16 16 0 0 0 21.6-21.6 2.155 2.155 0 0 1 .43-.6l.71.71a16.018 16.018 0 0 1 0 22.63z" fill="#cd2a00"/><circle cx="28" cy="28" fill="#e0e0e2" r="2"/><path d="m22 29a2 2 0 0 1 .42 3.95 3.984 3.984 0 1 1 -6.89 4 4.748 4.748 0 0 1 -.53.05 3.737 3.737 0 0 1 -1.01-.15c0 .05.01.1.01.15a2 2 0 1 1 -2.42-1.95 3.984 3.984 0 1 1 6.89-4 4.748 4.748 0 0 1 .53-.05 3.737 3.737 0 0 1 1.01.15c0-.05-.01-.1-.01-.15a2.006 2.006 0 0 1 2-2z" fill="#ffe477"/><circle cx="9" cy="47" fill="#e0e0e2" r="2"/><path d="m51.04 18.62-5.66-5.66a3 3 0 0 0 -4.24 4.24l-6.77 6.77a21.128 21.128 0 0 0 -26.58 2.54 21 21 0 0 0 29.7 29.7 21.128 21.128 0 0 0 2.54-26.58l6.77-6.77a3 3 0 1 0 4.24-4.24zm-13.02 10.19a1 1 0 0 0 -.1 1.3 19.1 19.1 0 0 1 -1.85 24.69 18.964 18.964 0 1 1 -2.18-28.72.991.991 0 0 0 1.3-.1l7.37-7.36 2.82 2.82zm11.61-7.37a1.008 1.008 0 0 1 -1.42 0l-5.65-5.65a1.008 1.008 0 0 1 0-1.42 1 1 0 0 1 1.41 0l5.66 5.66a1 1 0 0 1 0 1.41z"/><path d="m33.95 28.636a1 1 0 0 0 -1.414 0c-1.322 1.322-1 2.92-.747 4.2.234 1.171.34 1.86-.2 2.4s-1.228.432-2.4.2c-1.283-.257-2.882-.575-4.2.746s-1 2.92-.745 4.2c.235 1.171.341 1.859-.2 2.4s-1.224.431-2.395.2c-1.283-.257-2.88-.576-4.2.744s-1 2.919-.745 4.2c.234 1.171.341 1.859-.2 2.4s-1.227.431-2.4.2c-1.283-.258-2.881-.578-4.2.744a1 1 0 0 0 0 1.414l.707.707a17 17 0 0 0 24.046-24.048zm-.707 23.335a15.022 15.022 0 0 1 -20.886.318 7.5 7.5 0 0 1 1.361.192c1.283.256 2.88.577 4.2-.744s1-2.919.745-4.2c-.235-1.17-.341-1.858.2-2.4s1.224-.431 2.4-.2c1.284.258 2.882.578 4.2-.744s1-2.919.746-4.2c-.235-1.17-.341-1.859.2-2.4s1.227-.432 2.4-.2c1.283.257 2.882.575 4.2-.746s1-2.92.746-4.2a7.558 7.558 0 0 1 -.191-1.366 15.022 15.022 0 0 1 -.316 20.888z"/><path d="m60 19a3 3 0 1 0 -3 3 3 3 0 0 0 3-3zm-3 1a1 1 0 1 1 1-1 1 1 0 0 1 -1 1z"/><path d="m36 14a3 3 0 1 0 -3-3 3 3 0 0 0 3 3zm0-4a1 1 0 1 1 -1 1 1 1 0 0 1 1-1z"/><path d="m28 31a3 3 0 1 0 -3-3 3 3 0 0 0 3 3zm0-4a1 1 0 1 1 -1 1 1 1 0 0 1 1-1z"/><path d="m41 8a3 3 0 1 0 -3-3 3 3 0 0 0 3 3zm0-4a1 1 0 1 1 -1 1 1 1 0 0 1 1-1z"/><path d="m49 14a3.005 3.005 0 0 0 2.83-2h.192a4.985 4.985 0 0 0 8.978-3 4.881 4.881 0 0 0 -.259-1.561 3 3 0 1 0 -4.571-3.439c-.064 0-.13 0-.192 0a4.985 4.985 0 0 0 -8.978 3 4.881 4.881 0 0 0 .259 1.561 3 3 0 0 0 1.741 5.439zm-.211-3.976a1 1 0 0 0 .648-1.492 2.954 2.954 0 0 1 -.437-1.532 2.988 2.988 0 0 1 5.6-1.457 1.136 1.136 0 0 0 1.1.488 2.535 2.535 0 0 1 1.053.082 1 1 0 0 0 1.253-1.037l-.006-.076a1 1 0 1 1 1.211.976 1 1 0 0 0 -.649 1.492 2.945 2.945 0 0 1 .438 1.532 2.988 2.988 0 0 1 -5.6 1.457 1.108 1.108 0 0 0 -.952-.5 1.074 1.074 0 0 0 -.151.01 2.5 2.5 0 0 1 -1.053-.082 1 1 0 0 0 -1.253 1.037l.009.078a1 1 0 1 1 -1.211-.976z"/><path d="m12 40a3.005 3.005 0 0 0 2.83-2h.192a4.985 4.985 0 0 0 8.978-3 4.881 4.881 0 0 0 -.259-1.561 3 3 0 1 0 -4.571-3.439q-.1 0-.192 0a4.985 4.985 0 0 0 -8.978 3 4.881 4.881 0 0 0 .259 1.561 3 3 0 0 0 1.741 5.439zm-.211-3.976a1 1 0 0 0 .648-1.492 2.954 2.954 0 0 1 -.437-1.532 2.988 2.988 0 0 1 5.6-1.457 1.13 1.13 0 0 0 1.1.488 2.536 2.536 0 0 1 1.053.082 1 1 0 0 0 1.253-1.037l-.006-.076a1 1 0 1 1 1.211.976 1 1 0 0 0 -.649 1.492 2.945 2.945 0 0 1 .438 1.532 2.988 2.988 0 0 1 -5.6 1.457 1.108 1.108 0 0 0 -.952-.5 1.074 1.074 0 0 0 -.151.01 2.5 2.5 0 0 1 -1.053-.082 1 1 0 0 0 -1.253 1.037l.009.078a1 1 0 1 1 -1.211-.976z"/><path d="m52.219 24.375c-.432.54-4.219 5.368-4.219 8.625a5 5 0 0 0 10 0c0-3.257-3.787-8.085-4.219-8.625a1.036 1.036 0 0 0 -1.562 0zm.781 11.625a3 3 0 0 1 -3-3c0-1.743 1.762-4.6 3-6.334 1.238 1.734 3 4.588 3 6.334a3 3 0 0 1 -3 3z"/><path d="m54 47c0-3.257-3.787-8.085-4.219-8.625a1.036 1.036 0 0 0 -1.562 0c-.432.54-4.219 5.368-4.219 8.625a5 5 0 0 0 10 0zm-5 3a3 3 0 0 1 -3-3c0-1.743 1.762-4.6 3-6.334 1.238 1.734 3 4.588 3 6.334a3 3 0 0 1 -3 3z"/><path d="m56.219 48.375c-.432.54-4.219 5.368-4.219 8.625a5 5 0 0 0 10 0c0-3.257-3.787-8.085-4.219-8.625a1.036 1.036 0 0 0 -1.562 0zm.781 11.625a3 3 0 0 1 -3-3c0-1.743 1.762-4.6 3-6.334 1.238 1.734 3 4.588 3 6.334a3 3 0 0 1 -3 3z"/><path d="m12 47a3 3 0 1 0 -3 3 3 3 0 0 0 3-3zm-3 1a1 1 0 1 1 1-1 1 1 0 0 1 -1 1z"/></g></svg>