<svg height="496pt" viewBox="0 0 496 496" width="496pt" xmlns="http://www.w3.org/2000/svg"><path d="m296 312-152.800781 152.800781c-14.878907 14.878907-34.960938 23.199219-56 23.199219-21.917969 0-41.679688-8.878906-56-23.199219-14.320313-14.320312-23.199219-34.082031-23.199219-56 0-10.480469 2.078125-20.800781 6-30.242187 3.921875-9.597656 9.761719-18.320313 17.199219-25.757813l40.800781-40.800781zm0 0" fill="#5cd6b3"/><path d="m264 120-9.359375-9.359375c-4.242187-4.242187-6.640625-10-6.640625-16 0-6.242187 2.558594-11.921875 6.640625-16 4.078125-4.082031 9.757813-6.640625 16-6.640625 6 0 11.757813 2.398438 16 6.640625l130.71875 130.71875c4.242187 4.242187 6.640625 10 6.640625 16 0 6.242187-2.558594 11.921875-6.640625 16-4.078125 4.082031-9.757813 6.640625-16 6.640625-6 0-11.757813-2.398438-16-6.640625l-9.359375-9.359375-80 80h-224zm0 0" fill="#e6e9ed"/><path d="m488 120c0 13.253906-10.746094 24-24 24s-24-10.746094-24-24 10.746094-24 24-24 24 10.746094 24 24zm0 0" fill="#fcd770"/><path d="m456 24c0 8.835938-7.164062 16-16 16s-16-7.164062-16-16 7.164062-16 16-16 16 7.164062 16 16zm0 0" fill="#fcd770"/><path d="m360 48c0 8.835938-7.164062 16-16 16s-16-7.164062-16-16 7.164062-16 16-16 16 7.164062 16 16zm0 0" fill="#fcd770"/><path d="m184 368c0 8.835938-7.164062 16-16 16s-16-7.164062-16-16 7.164062-16 16-16 16 7.164062 16 16zm0 0" fill="#fcd770"/><path d="m112 440c0 8.835938-7.164062 16-16 16s-16-7.164062-16-16 7.164062-16 16-16 16 7.164062 16 16zm0 0" fill="#fcd770"/><path d="m96 368c0 8.835938-7.164062 16-16 16s-16-7.164062-16-16 7.164062-16 16-16 16 7.164062 16 16zm0 0" fill="#fcd770"/><g fill="#1e1713"><path d="m292.28125 72.976562c-5.785156-5.792968-13.464844-8.976562-21.65625-8.976562-16.882812 0-30.625 13.734375-30.625 30.632812 0 8.175782 3.183594 15.863282 8.96875 21.65625l3.71875 3.710938-227.152344 227.152344c-16.464844 16.464844-25.535156 38.359375-25.535156 61.65625 0 48.070312 39.121094 87.191406 87.191406 87.191406 23.289063 0 45.183594-9.070312 61.65625-25.535156l227.152344-227.152344 3.71875 3.710938c5.785156 5.792968 13.464844 8.976562 21.65625 8.976562 16.882812 0 30.625-13.734375 30.625-30.632812 0-8.175782-3.183594-15.863282-8.96875-21.65625zm-154.746094 386.175782c-13.4375 13.441406-31.328125 20.847656-50.34375 20.847656-39.253906 0-71.191406-31.9375-71.191406-71.191406 0-19.015625 7.40625-36.898438 20.847656-50.34375l38.464844-38.464844h201.375zm263.839844-219.152344c-3.847656 0-7.613281-1.558594-10.34375-4.289062l-15.03125-15.023438-83.3125 83.3125h-201.375l28.6875-28.6875 18.34375 18.34375 11.3125-11.3125-18.34375-18.34375 12.6875-12.6875 34.34375 34.34375 11.3125-11.3125-34.34375-34.34375 12.6875-12.6875 18.34375 18.34375 11.3125-11.3125-18.34375-18.34375 12.6875-12.6875 34.34375 34.34375 11.3125-11.3125-34.34375-34.34375 12.6875-12.6875 18.34375 18.34375 11.3125-11.3125-18.34375-18.34375 12.6875-12.6875 34.34375 34.34375 11.3125-11.3125-34.34375-34.34375 12.6875-12.679688 82.34375 82.335938 11.3125-11.3125-97.375-97.367188c-2.761719-2.769531-4.28125-6.441406-4.28125-10.34375 0-8.074218 6.558594-14.632812 14.625-14.632812 3.847656 0 7.613281 1.558594 10.34375 4.289062l130.75 130.734376c2.761719 2.769531 4.28125 6.441406 4.28125 10.34375 0 8.074218-6.558594 14.632812-14.625 14.632812zm0 0"/><path d="m464 88c-17.648438 0-32 14.351562-32 32s14.351562 32 32 32 32-14.351562 32-32-14.351562-32-32-32zm0 48c-8.824219 0-16-7.175781-16-16s7.175781-16 16-16 16 7.175781 16 16-7.175781 16-16 16zm0 0"/><path d="m344 72c13.230469 0 24-10.769531 24-24s-10.769531-24-24-24-24 10.769531-24 24 10.769531 24 24 24zm0-32c4.414062 0 8 3.59375 8 8s-3.585938 8-8 8-8-3.59375-8-8 3.585938-8 8-8zm0 0"/><path d="m440 48c13.230469 0 24-10.769531 24-24s-10.769531-24-24-24-24 10.769531-24 24 10.769531 24 24 24zm0-32c4.414062 0 8 3.59375 8 8s-3.585938 8-8 8-8-3.59375-8-8 3.585938-8 8-8zm0 0"/><path d="m104 368c0-13.230469-10.769531-24-24-24s-24 10.769531-24 24 10.769531 24 24 24 24-10.769531 24-24zm-32 0c0-4.40625 3.585938-8 8-8s8 3.59375 8 8-3.585938 8-8 8-8-3.59375-8-8zm0 0"/><path d="m168 344c-13.230469 0-24 10.769531-24 24s10.769531 24 24 24 24-10.769531 24-24-10.769531-24-24-24zm0 32c-4.414062 0-8-3.59375-8-8s3.585938-8 8-8 8 3.59375 8 8-3.585938 8-8 8zm0 0"/><path d="m96 416c-13.230469 0-24 10.769531-24 24s10.769531 24 24 24 24-10.769531 24-24-10.769531-24-24-24zm0 32c-4.414062 0-8-3.59375-8-8s3.585938-8 8-8 8 3.59375 8 8-3.585938 8-8 8zm0 0"/></g></svg>